<svg width="102" height="106" viewBox="0 0 102 106" fill="none" xmlns="http://www.w3.org/2000/svg">
<rect width="102" height="106" fill="#D6D6D6"/>
<g id="Rik E-learning">
<rect width="1440" height="6040" transform="translate(-585 -1207)" fill="white"/>
<g id="Why choos us-eLearning Landing Page 4">
<g id="Why choos us">
<g id="Group 4261">
<g id="Icon">
<path id="Rectangle 184" d="M0 22C0 9.84974 9.84974 0 22 0H80C92.1503 0 102 9.84974 102 22V84C102 96.1503 92.1503 106 80 106H22C9.84973 106 0 96.1503 0 84V22Z" fill="#002AA2"/>
<g id="Users">
<g id="User1">
<path id="Ellipse 55" d="M44.003 57C35.7111 57 29.4536 65.0364 31.3369 73H56.6692C58.5524 65.0364 52.295 57 44.003 57Z" fill="white"/>
<ellipse id="Ellipse 56" cx="43.9913" cy="40" rx="7.00163" ry="7" fill="white"/>
</g>
<g id="User2">
<path id="Ellipse 57" d="M61.9961 59C58.9888 59 56.3258 60.331 54.691 62.376L47.9996 69H56.995H70.7573C72.1654 63.6198 67.2179 59 61.9961 59Z" fill="white"/>
<ellipse id="Ellipse 58" cx="61.9956" cy="48" rx="5.00116" ry="5" fill="white"/>
</g>
</g>
</g>
</g>
</g>
</g>
</g>
</svg>
