<svg width="102" height="106" viewBox="0 0 102 106" fill="none" xmlns="http://www.w3.org/2000/svg">
<rect width="102" height="106" fill="#D6D6D6"/>
<g id="Rik E-learning">
<rect width="1440" height="6040" transform="translate(-950 -1207)" fill="white"/>
<g id="Why choos us-eLearning Landing Page 4">
<g id="Why choos us">
<g id="Group 4262">
<g id="Icon">
<path id="Rectangle 184" d="M0 22C0 9.84974 9.84974 0 22 0H80C92.1503 0 102 9.84974 102 22V84C102 96.1503 92.1503 106 80 106H22C9.84973 106 0 96.1503 0 84V22Z" fill="#FFB800"/>
<g id="Edit-icon">
<path id="Vector 30" d="M37.2842 73H65.2842" stroke="white" stroke-width="3" stroke-linecap="round"/>
<path id="Rectangle 42" d="M68.7696 41.4853L61.6985 34.4142C60.9175 33.6332 59.6511 33.6332 58.8701 34.4142L40.8389 52.4454L36.9498 66.234L50.7384 62.3449L68.7696 44.3137C69.5506 43.5327 69.5506 42.2663 68.7696 41.4853Z" fill="white"/>
<path id="Rectangle 43" d="M36.9506 66.234L40.8397 52.4454L50.7392 62.3449L36.9506 66.234Z" fill="#FFE0E0"/>
</g>
</g>
</g>
</g>
</g>
</g>
</svg>
