<svg width="73" height="73" viewBox="0 0 73 73" fill="none" xmlns="http://www.w3.org/2000/svg">
<rect width="73" height="73" fill="#D6D6D6"/>
<g id="Rik E-learning">
<rect width="1440" height="6040" transform="translate(-135 -810)" fill="white"/>
<rect id="Rectangle 4547" x="-135" y="-80" width="1440" height="233" fill="#F5F7FA"/>
<g id="Countdown-eLearning Landing Page 4">
<g id="Countdown">
<g id="Group 4252">
<g id="Icon">
<circle id="Ellipse 48" cx="36.5" cy="36.5" r="36.5" fill="#00DEE8"/>
<g id="Book">
<path id="Book_2" d="M25 28C25 25.7909 26.7909 24 29 24H45.9091C47.0137 24 47.9091 24.8954 47.9091 26V47.4545C47.9091 48.5591 47.0137 49.4545 45.9091 49.4545H29C26.7909 49.4545 25 47.6637 25 45.4545V28Z" fill="white"/>
<path id="Book_3" d="M28.8182 29.4546C28.8182 28.9023 29.2659 28.4546 29.8182 28.4546H43.0909C43.6432 28.4546 44.0909 28.9023 44.0909 29.4546V31.2727C44.0909 31.825 43.6432 32.2727 43.0909 32.2727H29.8182C29.2659 32.2727 28.8182 31.825 28.8182 31.2727V29.4546Z" fill="#01957D"/>
</g>
</g>
</g>
</g>
</g>
</g>
</svg>
