<?xml version="1.0" encoding="utf-8"?>
<!-- Generator: Adobe Illustrator 27.5.0, SVG Export Plug-In . SVG Version: 6.00 Build 0)  -->
<svg version="1.1" xmlns="http://www.w3.org/2000/svg" xmlns:xlink="http://www.w3.org/1999/xlink" x="0px" y="0px"
	 viewBox="0 0 750 500" style="enable-background:new 0 0 750 500;" xml:space="preserve">
<g id="BACKGROUND">
	<path style="fill:#E0ECFA;" d="M706.375,347.075c-16.918-15.904-43.731-12.458-66.346-7.195
		c-22.615,5.264-48.45,10.752-67.398-2.669c-15.448-10.943-21.063-31.405-21.469-50.332c-0.406-18.927,3.272-37.869,1.554-56.722
		c-1.718-18.853-10.501-38.826-27.878-46.338c-18.808-8.131-40.184,0.752-58.959,8.958c-18.775,8.206-41.201,15.658-58.851,5.249
		c-20.209-11.918-22.399-40.198-19.033-63.417c3.366-23.219,9.578-48.372-1.566-69.018c-15.183-28.128-54.08-32.311-85.503-26.452
		c-38.149,7.113-76.235,25.423-97.052,58.173c-15.382,24.2-19.825,53.502-28.826,80.727c-9.001,27.225-25.469,55.142-52.843,63.68
		c-24.198,7.548-53.305-1.301-73.908,13.464c-15.896,11.392-20.589,33.136-19.698,52.672c1.244,27.277,11.138,54.095,27.907,75.645
		c9.032,11.606,20.396,22.517,23.224,36.949c1.277,6.518-0.532,13.767-4.185,19.361H43.916c-4.86,0-8.8,3.94-8.8,8.8
		c0,4.86,3.94,8.8,8.8,8.8h639.222c4.86,0,8.8-3.94,8.8-8.8c0-4.86-3.94-8.8-8.8-8.8h-6.951c12.436-7.981,23.894-17.195,32.1-29.35
		C721.161,391.389,723.139,362.835,706.375,347.075z"/>
</g>
<g id="OBJECTS">
	<g>
		<g>
			<g>
				<path style="fill:#1565C0;" d="M606.203,444.532h16.839c1.561-4.341,3.99-8.447,6.587-12.288
					c4.267-6.309,9.125-12.346,11.908-19.436c1.031-2.626,1.756-5.594,0.759-8.233c-1.182-3.131-4.668-5.014-8.014-4.95
					c-3.347,0.064-6.49,1.787-8.923,4.085c-2.434,2.298-4.836,6.484-6.637,9.306c5.647-14.714,6.452-31.242,2.26-46.435
					c-0.676-2.449-1.499-4.907-2.994-6.961c-1.495-2.054-3.764-3.672-6.298-3.842c-2.639-0.177-5.194,1.245-6.952,3.221
					c-1.758,1.976-2.834,4.458-3.75,6.939c-6.227,16.873-6.166,35.2,0.159,52.036c-2.611-2.489-3.728-6.112-5.481-9.265
					c-1.753-3.153-4.84-6.169-8.421-5.728c-3.424,0.422-5.76,4.025-5.87,7.473c-0.11,3.449,1.469,6.713,3.198,9.7
					C590.051,429.621,597.46,437.962,606.203,444.532z"/>
				<path style="fill:#0D47A1;" d="M619.076,444.532c-9.496-23.345-12.851-48.994-9.57-74.045c0.297-2.269-3.185-3.128-3.485-0.842
					c-3.327,25.406-0.111,51.175,9.239,74.887H619.076z"/>
				<path style="fill:#0D47A1;" d="M613.779,444.532h5.752c-0.125-0.345-0.361-0.664-0.74-0.908
					c-11.575-7.453-21.071-17.533-27.914-29.47c-1.147-2.001-4.184-0.096-3.036,1.907
					C594.333,427.387,603.168,437.025,613.779,444.532z"/>
				<path style="fill:#0D47A1;" d="M618.955,444.532c2.811-11.757,8.008-22.715,15.43-32.284c1.402-1.807-1.205-4.272-2.623-2.444
					c-7.979,10.286-13.592,22.037-16.492,34.727H618.955z"/>
			</g>
			<g>
				<path style="fill:#1565C0;" d="M635.84,444.532h13.384c3.041-1.532,6.287-2.738,9.517-3.777
					c7.251-2.333,14.799-4.085,21.363-7.948c2.432-1.431,4.833-3.319,5.678-6.011c1.002-3.194-0.58-6.826-3.253-8.84
					c-2.673-2.014-6.21-2.598-9.543-2.291c-3.333,0.306-7.807,2.119-10.965,3.228c13.523-8.095,24.354-20.605,30.43-35.147
					c0.979-2.344,1.848-4.787,1.939-7.325c0.091-2.538-0.696-5.212-2.586-6.91c-1.968-1.767-4.856-2.225-7.459-1.755
					c-2.603,0.47-4.981,1.76-7.232,3.147c-15.311,9.436-26.572,23.896-31.982,41.048c-0.519-3.57,0.838-7.11,1.403-10.673
					c0.566-3.563-0.003-7.841-3.092-9.703c-2.956-1.781-7.016-0.387-9.231,2.259c-2.214,2.646-2.986,6.189-3.469,9.606
					c-1.638,11.607-0.738,23.565,2.621,34.796C634.037,440.489,634.911,442.527,635.84,444.532z"/>
				<path style="fill:#0D47A1;" d="M642.683,444.532c6.883-24.47,20.137-46.953,38.328-64.793c1.634-1.602-0.576-4.427-2.222-2.813
					c-19.033,18.665-32.737,42.01-39.789,67.606H642.683z"/>
				<path style="fill:#0D47A1;" d="M639.94,444.532h3.121c0.242-0.418,0.328-0.937,0.13-1.509
					c-4.51-13.007-5.764-26.798-3.783-40.415c0.332-2.282-3.234-2.657-3.566-0.373c-2.071,14.243-0.648,28.632,4.065,42.224
					C639.916,444.487,639.93,444.507,639.94,444.532z"/>
				<path style="fill:#0D47A1;" d="M639.596,444.532h2.291c9.669-7.882,20.828-13.537,32.934-16.578
					c2.218-0.557,1.687-4.105-0.556-3.542c-12.737,3.199-24.5,9.054-34.675,17.366C638.581,442.603,638.849,443.858,639.596,444.532
					z"/>
			</g>
			<g>
				<path style="fill:#2979FF;" d="M611.499,444.532h32.014c1.118-0.962,2.253-1.9,3.397-2.812
					c7.596-6.055,15.81-11.553,21.897-19.123c2.255-2.804,4.268-6.141,4.06-9.733c-0.246-4.262-3.772-7.881-7.87-9.077
					s-8.58-0.296-12.418,1.574c-3.838,1.87-8.356,6.052-11.623,8.799c12.478-15.76,19.752-35.572,20.436-55.662
					c0.11-3.238,0.044-6.544-0.993-9.613s-3.183-5.904-6.203-7.075c-3.145-1.22-6.797-0.463-9.69,1.273
					c-2.893,1.736-5.147,4.347-7.207,7.019c-14.005,18.167-20.912,40.498-19.624,63.401c-2.23-4.024-2.21-8.86-3.143-13.365
					c-0.933-4.505-3.542-9.353-8.068-10.179c-4.329-0.79-8.544,2.705-9.992,6.861c-1.447,4.156-0.769,8.731,0.198,13.024
					C599.447,422.181,604.514,433.993,611.499,444.532z"/>
				<path style="fill:#0D47A1;" d="M628.892,444.532c-1.153-29.374,4.655-58.876,17.045-85.648c1.226-2.648-2.686-5.021-3.921-2.353
					c-12.784,27.624-18.778,57.793-17.643,88.001H628.892z"/>
				<path style="fill:#0D47A1;" d="M618.579,444.532h5.505c-8.396-11.882-14.299-25.298-17.454-39.59
					c-0.634-2.872-5.057-1.71-4.422,1.165C605.254,419.906,610.82,432.868,618.579,444.532z"/>
				<path style="fill:#0D47A1;" d="M634.548,444.532c7.091-9.814,15.748-18.37,25.767-25.34c2.395-1.666,0.16-5.659-2.262-3.974
					c-11.461,7.973-21.275,17.847-29.084,29.314H634.548z"/>
			</g>
		</g>
		<g>
			<g>
				<path style="fill:#1565C0;" d="M55.84,441.824h16.838c1.561-4.341,3.99-8.447,6.587-12.288
					c4.267-6.309,9.125-12.346,11.908-19.436c1.031-2.626,1.756-5.594,0.759-8.233c-1.182-3.132-4.668-5.014-8.015-4.95
					c-3.347,0.064-6.49,1.787-8.923,4.085c-2.434,2.298-4.836,6.485-6.637,9.306c5.647-14.714,6.452-31.242,2.26-46.435
					c-0.676-2.449-1.499-4.907-2.994-6.961c-1.494-2.054-3.764-3.672-6.298-3.842c-2.639-0.177-5.194,1.245-6.952,3.221
					c-1.758,1.976-2.834,4.458-3.75,6.939c-6.227,16.873-6.166,35.2,0.16,52.036c-2.611-2.489-3.728-6.112-5.481-9.265
					c-1.753-3.153-4.84-6.169-8.421-5.728c-3.424,0.422-5.76,4.025-5.87,7.473c-0.11,3.449,1.469,6.713,3.198,9.7
					C39.687,426.912,47.096,435.254,55.84,441.824z"/>
				<path style="fill:#0D47A1;" d="M68.713,441.824c-9.496-23.345-12.85-48.995-9.57-74.045c0.297-2.269-3.185-3.128-3.485-0.842
					c-3.327,25.406-0.111,51.175,9.239,74.887H68.713z"/>
				<path style="fill:#0D47A1;" d="M63.416,441.824h5.752c-0.126-0.345-0.361-0.664-0.74-0.908
					c-11.575-7.453-21.071-17.533-27.914-29.47c-1.147-2.001-4.184-0.096-3.036,1.907C43.97,424.678,52.805,434.317,63.416,441.824z
					"/>
				<path style="fill:#0D47A1;" d="M68.591,441.824c2.811-11.757,8.008-22.715,15.43-32.284c1.402-1.807-1.205-4.272-2.623-2.444
					c-7.979,10.286-13.592,22.037-16.493,34.728H68.591z"/>
			</g>
			<g>
				<path style="fill:#1565C0;" d="M85.477,441.824h13.384c3.041-1.532,6.287-2.738,9.517-3.777
					c7.251-2.333,14.799-4.085,21.363-7.948c2.431-1.431,4.833-3.319,5.678-6.011c1.002-3.194-0.58-6.826-3.253-8.84
					c-2.673-2.014-6.21-2.598-9.543-2.291s-7.807,2.119-10.965,3.228c13.523-8.095,24.354-20.605,30.43-35.147
					c0.979-2.344,1.848-4.787,1.939-7.325c0.091-2.538-0.696-5.212-2.586-6.91c-1.968-1.767-4.856-2.225-7.459-1.755
					s-4.981,1.76-7.232,3.147c-15.311,9.436-26.572,23.896-31.982,41.048c-0.519-3.57,0.838-7.11,1.403-10.673
					c0.566-3.563-0.003-7.841-3.093-9.703c-2.956-1.781-7.016-0.387-9.231,2.259c-2.214,2.646-2.986,6.189-3.469,9.606
					c-1.638,11.607-0.738,23.565,2.621,34.796C83.674,437.781,84.548,439.819,85.477,441.824z"/>
				<path style="fill:#0D47A1;" d="M92.32,441.824c6.883-24.47,20.137-46.953,38.328-64.793c1.634-1.602-0.576-4.427-2.222-2.813
					c-19.033,18.665-32.737,42.01-39.788,67.606H92.32z"/>
				<path style="fill:#0D47A1;" d="M89.576,441.824h3.121c0.242-0.418,0.328-0.937,0.13-1.509
					c-4.51-13.007-5.764-26.798-3.783-40.415c0.332-2.282-3.234-2.657-3.566-0.373c-2.072,14.243-0.648,28.632,4.065,42.224
					C89.552,441.778,89.566,441.798,89.576,441.824z"/>
				<path style="fill:#0D47A1;" d="M89.233,441.824h2.291c9.669-7.882,20.828-13.537,32.934-16.578
					c2.218-0.557,1.687-4.105-0.556-3.542c-12.737,3.199-24.501,9.054-34.675,17.366C88.217,439.895,88.486,441.15,89.233,441.824z"
					/>
			</g>
			<g>
				<path style="fill:#2979FF;" d="M61.136,441.824H93.15c1.118-0.962,2.253-1.9,3.397-2.812
					c7.596-6.055,15.809-11.553,21.897-19.123c2.255-2.804,4.268-6.141,4.06-9.733c-0.246-4.262-3.772-7.881-7.87-9.077
					s-8.58-0.296-12.418,1.574c-3.838,1.87-8.356,6.052-11.623,8.799c12.478-15.76,19.752-35.572,20.436-55.662
					c0.11-3.238,0.044-6.544-0.993-9.613c-1.037-3.069-3.183-5.904-6.203-7.075c-3.145-1.22-6.797-0.463-9.689,1.273
					c-2.893,1.736-5.147,4.347-7.207,7.019c-14.006,18.167-20.912,40.498-19.624,63.401c-2.23-4.024-2.21-8.86-3.143-13.365
					c-0.933-4.505-3.542-9.353-8.068-10.179c-4.329-0.79-8.544,2.705-9.992,6.861c-1.447,4.156-0.769,8.731,0.198,13.025
					C49.084,419.473,54.15,431.284,61.136,441.824z"/>
				<path style="fill:#0D47A1;" d="M78.528,441.824c-1.153-29.374,4.655-58.876,17.045-85.648c1.226-2.648-2.686-5.021-3.921-2.353
					c-12.784,27.623-18.778,57.793-17.643,88.001H78.528z"/>
				<path style="fill:#0D47A1;" d="M68.216,441.824h5.505c-8.396-11.882-14.299-25.298-17.454-39.59
					c-0.634-2.872-5.057-1.71-4.422,1.165C54.891,417.197,60.456,430.159,68.216,441.824z"/>
				<path style="fill:#0D47A1;" d="M84.184,441.824c7.091-9.814,15.748-18.37,25.767-25.34c2.395-1.666,0.16-5.659-2.262-3.974
					c-11.461,7.973-21.275,17.847-29.084,29.314H84.184z"/>
			</g>
		</g>
		<g>
			<g>
				<g>
					<g>
						<polygon style="fill:#C7861E;" points="151.552,123.644 129.23,169.276 170.626,441.039 223.317,441.039 176.337,166.574 
													"/>
						<path style="fill:#ECB840;" d="M232.264,159.582l-44.973,25.965l-35.739-61.902l40.789-23.549
							c2.311-1.334,5.266-0.542,6.6,1.768L232.264,159.582z"/>
					</g>
					<g>
						<polygon style="fill:#C7861E;" points="436.634,123.644 458.956,169.276 417.56,441.039 364.869,441.039 411.849,166.574 
													"/>
						<path style="fill:#ECB840;" d="M355.922,159.582l44.973,25.965l35.739-61.902l-40.789-23.549
							c-2.311-1.334-5.266-0.542-6.6,1.768L355.922,159.582z"/>
					</g>
				</g>
				<path style="fill:#ECB840;" d="M327.453,96.106c-7.714-10.93-21.054-15.812-34.111-14.486
					c-30.777,3.127-43.856,36.096-44.439,63.006c-0.2,9.245,14.176,11.089,14.378,1.775c0.417-19.238,6.623-44.776,28.499-49.872
					c9.118-2.124,19.023,0.633,24.364,8.63c6.691,10.018,5.668,23.062,4.985,34.476c-0.555,9.275,13.821,11.089,14.378,1.775
					C336.436,125.894,336.835,109.399,327.453,96.106z"/>
				<path style="fill:#162440;" d="M427.114,441.97H157.749V219.26c0-56.492,45.796-102.287,102.287-102.287h64.791
					c56.492,0,102.287,45.796,102.287,102.287V441.97z"/>
				<path style="fill:#C7861E;" d="M400.437,434.961h-216.01c-6.386,0-11.563-5.177-11.563-11.563V284.975
					c0-6.386,5.177-11.563,11.563-11.563h216.01c6.386,0,11.563,5.177,11.563,11.563v138.422
					C412,429.784,406.823,434.961,400.437,434.961z"/>
				<path style="fill:#ECB840;" d="M391.949,434.961H192.914c-6.386,0-11.563-5.177-11.563-11.563V284.975
					c0-6.386,5.177-11.563,11.563-11.563h199.035c6.386,0,11.563,5.177,11.563,11.563v138.422
					C403.512,429.784,398.335,434.961,391.949,434.961z"/>
				<path style="fill:#162440;" d="M390.444,308.179H194.419c-3.193,0-5.782-2.589-5.782-5.782v-3.662
					c0-3.193,2.589-5.782,5.782-5.782h196.025c3.193,0,5.782,2.589,5.782,5.782v3.662
					C396.226,305.591,393.637,308.179,390.444,308.179z"/>
				<path style="fill:#ECB840;" d="M390.444,231.985H194.419c-3.193,0-5.782-2.589-5.782-5.782v-3.662
					c0-3.193,2.589-5.782,5.782-5.782h196.025c3.193,0,5.782,2.589,5.782,5.782v3.662
					C396.226,229.396,393.637,231.985,390.444,231.985z"/>
			</g>
			<g>
				<g>
					<path d="M436.754,362.487c1.721-3.299,3.443-6.598,5.164-9.897c0.932-1.787,3.643-0.219,2.711,1.568
						c-1.721,3.299-3.442,6.598-5.164,9.897C438.532,365.843,435.822,364.274,436.754,362.487z"/>
					<path d="M484.438,362.487c-1.721-3.299-3.443-6.598-5.164-9.897c-0.932-1.787-3.643-0.219-2.711,1.568
						c1.721,3.299,3.442,6.598,5.164,9.897C482.659,365.843,485.37,364.274,484.438,362.487z"/>
					<path d="M461.217,276.222c-0.008-1.341-2.095-1.385-2.087-0.039c0.012,2.052,0.024,4.103,0.036,6.155
						c0.008,1.341,2.095,1.385,2.087,0.039C461.241,280.325,461.229,278.273,461.217,276.222z"/>
					<path d="M435.146,285.728c-0.816-1.065-2.506,0.159-1.688,1.228c1.248,1.629,2.495,3.258,3.743,4.886
						c0.816,1.065,2.506-0.16,1.688-1.228C437.642,288.986,436.394,287.357,435.146,285.728z"/>
					<path d="M486.127,285.728c0.816-1.065,2.506,0.159,1.688,1.228c-1.248,1.629-2.495,3.258-3.743,4.886
						c-0.816,1.065-2.506-0.16-1.688-1.228C483.632,288.986,484.88,287.357,486.127,285.728z"/>
					<g>
						<path style="fill:#ECB840;" d="M499.786,321.385c-0.154,21.852-17.995,39.442-39.847,39.288
							c-21.852-0.154-39.442-17.994-39.288-39.847c0.155-21.852,17.995-39.442,39.847-39.288
							C482.35,281.693,499.94,299.533,499.786,321.385z"/>
						<path style="fill:#EFEBE9;" d="M495.343,321.354c-0.137,19.399-15.974,35.013-35.372,34.876
							c-19.399-0.137-35.014-15.974-34.876-35.372c0.137-19.399,15.974-35.013,35.372-34.876
							C479.865,286.118,495.48,301.955,495.343,321.354z"/>
						<path d="M462.761,321.124c-0.01,1.404-1.156,2.535-2.561,2.525c-1.404-0.01-2.534-1.156-2.525-2.56
							c0.01-1.404,1.156-2.535,2.561-2.525C461.641,318.573,462.771,319.72,462.761,321.124z"/>
						<path d="M458.334,295.205c-0.073,8.505-0.147,17.01-0.22,25.515c-0.023,2.685,4.151,2.769,4.174,0.077
							c0.073-8.505,0.146-17.01,0.22-25.515C462.531,292.598,458.357,292.513,458.334,295.205z"/>
						<path d="M459.124,319.944c-4.63,3.213-9.26,6.426-13.89,9.639c-2.187,1.518-0.173,5.178,2.04,3.643
							c4.63-3.213,9.26-6.426,13.89-9.639C463.351,322.069,461.337,318.408,459.124,319.944z"/>
					</g>
					<path style="fill:#ECB840;" d="M464.006,273.437l-7.497-0.053c-2.685-0.019-2.769,4.155-0.077,4.174l7.497,0.053
						C466.613,277.63,466.697,273.456,464.006,273.437z"/>
				</g>
				<g>
					<path style="fill:#ECB840;" d="M448.035,278.797c-0.02-0.031-0.035-0.064-0.055-0.094c-5.044-7.729-15.399-9.905-23.127-4.86
						c-7.729,5.044-9.905,15.399-4.86,23.127c0.02,0.031,0.044,0.058,0.064,0.088L448.035,278.797z"/>
					<path style="fill:#ECB840;" d="M472.401,278.797c0.02-0.031,0.035-0.064,0.055-0.094c5.044-7.729,15.399-9.905,23.127-4.86
						c7.729,5.044,9.905,15.399,4.86,23.127c-0.02,0.031-0.044,0.058-0.064,0.088L472.401,278.797z"/>
				</g>
			</g>
			<g>
				<g>
					<line style="fill:none;" x1="473.977" y1="444.808" x2="473.977" y2="444.808"/>
					<rect x="369.391" y="444.808" style="fill:#407DEC;" width="95.766" height="5.77"/>
					<rect x="369.391" y="406.691" style="fill:#407DEC;" width="95.766" height="5.77"/>
					<path style="fill:#F9A825;" d="M559.107,406.691h-79.359h-2.647h-11.945v5.77h11.706h0.239h2.647v32.347h-2.647h-0.239h-11.706
						v5.77h11.945h2.647h79.996c12.467,0,22.539-10.451,21.917-23.051C581.078,415.741,570.909,406.691,559.107,406.691z"/>
					<path style="fill:#EFEBE9;" d="M378.471,412.461h5.156h85.768c7.566,0,13.699,6.133,13.699,13.699v4.949
						c0,7.566-6.133,13.699-13.699,13.699h-85.768h-5.156h-4.685v-32.347H378.471z"/>
				</g>
				<path style="fill:#FDD835;" d="M372.038,444.808h93.984c1.222,0,2.408-0.148,3.553-0.406c7.872-1.623,12.621-8.06,12.621-15.768
					v0c0-7.709-4.751-14.146-12.624-15.769c-1.144-0.257-2.329-0.405-3.549-0.405h-0.422h-93.562h-2.647v-5.77h2.647h93.984
					c12.1,0,21.944,9.844,21.944,21.944c0,12.099-9.844,21.944-21.944,21.944h-93.984h-2.647v-5.77H372.038L372.038,444.808z"/>
			</g>
			<g>
				<g>
					<line style="fill:none;" x1="494.61" y1="401.032" x2="494.61" y2="401.032"/>
					<rect x="390.023" y="401.032" style="fill:#407DEC;" width="95.766" height="5.77"/>
					<rect x="390.023" y="362.915" style="fill:#407DEC;" width="95.766" height="5.77"/>
					<path style="fill:#0042C4;" d="M579.739,362.915H500.38h-2.647h-11.945v5.77h11.706h0.239h2.647v32.347h-2.647h-0.239h-11.706
						v5.77h11.945h2.647h79.996c12.467,0,22.539-10.451,21.917-23.051C601.71,371.965,591.541,362.915,579.739,362.915z"/>
					<path style="fill:#EFEBE9;" d="M399.103,368.685h5.156h85.768c7.566,0,13.699,6.133,13.699,13.699v4.949
						c0,7.566-6.133,13.699-13.699,13.699H404.26h-5.156h-4.685v-32.347H399.103z"/>
				</g>
				<path style="fill:#6196FF;" d="M392.67,401.032h93.984c1.222,0,2.408-0.148,3.553-0.406c7.872-1.623,12.621-8.06,12.621-15.768
					v0c0-7.709-4.751-14.147-12.624-15.769c-1.144-0.257-2.329-0.405-3.549-0.405h-0.422H392.67h-2.647v-5.77h2.647h93.984
					c12.1,0,21.944,9.844,21.944,21.944c0,12.099-9.844,21.944-21.944,21.944H392.67h-2.647v-5.77H392.67L392.67,401.032z"/>
			</g>
			<g>
				<g>
					<path style="fill:#D8E2E8;" d="M142.551,436.066l41.297-137.353c0.425-1.412,1.913-2.212,3.325-1.788l16.538,4.972
						c1.412,0.424,2.213,1.913,1.788,3.325l-41.297,137.353c-0.424,1.412-1.913,2.212-3.325,1.788l-16.538-4.972
						C142.927,438.966,142.127,437.478,142.551,436.066z"/>
					<g>
						<g>
							<path style="fill:#0D47A1;" d="M202.551,304.502l-4.895-1.472c-1.65-0.496-2.455,2.059-0.801,2.557l4.895,1.472
								C203.4,307.555,204.205,305,202.551,304.502z"/>
							<path style="fill:#0D47A1;" d="M197.535,308.412c0.496-1.65-2.059-2.455-2.557-0.801
								C194.482,309.261,197.037,310.066,197.535,308.412z"/>
							<path style="fill:#0D47A1;" d="M196.361,312.317c0.496-1.65-2.059-2.455-2.556-0.801
								C193.308,313.166,195.863,313.971,196.361,312.317z"/>
						</g>
						<g>
							<path style="fill:#0D47A1;" d="M199.081,316.043l-4.895-1.472c-1.65-0.496-2.455,2.059-0.801,2.556l4.895,1.472
								C199.93,319.096,200.735,316.54,199.081,316.043z"/>
							<path style="fill:#0D47A1;" d="M194.065,319.953c0.496-1.65-2.059-2.455-2.557-0.801
								C191.012,320.802,193.568,321.607,194.065,319.953z"/>
							<path style="fill:#0D47A1;" d="M192.891,323.858c0.496-1.65-2.059-2.455-2.557-0.801
								C189.839,324.707,192.394,325.512,192.891,323.858z"/>
						</g>
						<g>
							<path style="fill:#0D47A1;" d="M195.611,327.584l-4.895-1.472c-1.65-0.496-2.455,2.059-0.801,2.556l4.895,1.472
								C196.46,330.636,197.265,328.081,195.611,327.584z"/>
							<path style="fill:#0D47A1;" d="M190.595,331.494c0.496-1.65-2.059-2.455-2.556-0.801
								C187.543,332.343,190.098,333.148,190.595,331.494z"/>
							<path style="fill:#0D47A1;" d="M189.421,335.399c0.496-1.65-2.059-2.455-2.557-0.801
								C186.368,336.248,188.924,337.053,189.421,335.399z"/>
						</g>
						<g>
							<path style="fill:#0D47A1;" d="M192.141,339.125l-4.895-1.472c-1.65-0.496-2.455,2.059-0.801,2.557l4.895,1.472
								C192.99,342.177,193.795,339.622,192.141,339.125z"/>
							<path style="fill:#0D47A1;" d="M187.125,343.034c0.496-1.65-2.059-2.455-2.556-0.801
								C184.073,343.883,186.628,344.689,187.125,343.034z"/>
							<path style="fill:#0D47A1;" d="M185.951,346.94c0.496-1.65-2.059-2.455-2.556-0.801
								C182.899,347.789,185.454,348.594,185.951,346.94z"/>
						</g>
						<g>
							<path style="fill:#0D47A1;" d="M188.671,350.666l-4.895-1.472c-1.65-0.496-2.455,2.059-0.801,2.556l4.895,1.471
								C189.52,353.718,190.325,351.163,188.671,350.666z"/>
							<path style="fill:#0D47A1;" d="M183.655,354.575c0.496-1.65-2.059-2.455-2.557-0.801
								C180.603,355.424,183.158,356.229,183.655,354.575z"/>
							<path style="fill:#0D47A1;" d="M182.481,358.48c0.496-1.65-2.059-2.455-2.556-0.801
								C179.429,359.33,181.984,360.135,182.481,358.48z"/>
						</g>
						<g>
							<path style="fill:#0D47A1;" d="M185.201,362.206l-4.895-1.472c-1.65-0.496-2.455,2.059-0.801,2.556l4.895,1.472
								C186.05,365.259,186.855,362.704,185.201,362.206z"/>
							<path style="fill:#0D47A1;" d="M180.185,366.116c0.496-1.65-2.059-2.455-2.556-0.801
								C177.133,366.965,179.688,367.77,180.185,366.116z"/>
							<path style="fill:#0D47A1;" d="M179.011,370.021c0.496-1.65-2.059-2.455-2.556-0.801
								C175.959,370.87,178.514,371.676,179.011,370.021z"/>
						</g>
						<g>
							<path style="fill:#0D47A1;" d="M181.731,373.747l-4.895-1.472c-1.65-0.496-2.455,2.059-0.801,2.556l4.895,1.471
								C182.58,376.8,183.385,374.245,181.731,373.747z"/>
							<path style="fill:#0D47A1;" d="M176.716,377.657c0.496-1.65-2.059-2.455-2.557-0.801
								C173.663,378.506,176.218,379.311,176.716,377.657z"/>
							<path style="fill:#0D47A1;" d="M175.541,381.562c0.496-1.65-2.059-2.455-2.556-0.801
								C172.489,382.411,175.044,383.216,175.541,381.562z"/>
						</g>
						<g>
							<path style="fill:#0D47A1;" d="M178.261,385.288l-4.895-1.472c-1.65-0.496-2.455,2.059-0.801,2.556l4.895,1.471
								C179.111,388.341,179.916,385.785,178.261,385.288z"/>
							<path style="fill:#0D47A1;" d="M173.246,389.198c0.496-1.65-2.059-2.455-2.557-0.801
								C170.193,390.047,172.748,390.852,173.246,389.198z"/>
							<path style="fill:#0D47A1;" d="M172.072,393.103c0.496-1.65-2.059-2.455-2.556-0.801
								C169.019,393.952,171.574,394.757,172.072,393.103z"/>
						</g>
						<g>
							<path style="fill:#0D47A1;" d="M174.792,396.829l-4.895-1.472c-1.65-0.496-2.455,2.059-0.801,2.556l4.895,1.472
								C175.641,399.881,176.446,397.326,174.792,396.829z"/>
							<path style="fill:#0D47A1;" d="M169.776,400.738c0.496-1.65-2.059-2.455-2.556-0.801
								C166.723,401.588,169.278,402.393,169.776,400.738z"/>
							<path style="fill:#0D47A1;" d="M168.602,404.644c0.496-1.65-2.059-2.455-2.556-0.801
								C165.549,405.493,168.104,406.298,168.602,404.644z"/>
						</g>
						<g>
							<path style="fill:#0D47A1;" d="M171.322,408.37l-4.895-1.472c-1.65-0.496-2.455,2.059-0.801,2.556l4.895,1.471
								C172.171,411.422,172.976,408.867,171.322,408.37z"/>
							<path style="fill:#0D47A1;" d="M166.306,412.28c0.496-1.65-2.059-2.455-2.556-0.801
								C163.253,413.128,165.809,413.934,166.306,412.28z"/>
							<path style="fill:#0D47A1;" d="M165.132,416.185c0.496-1.65-2.059-2.455-2.556-0.801
								C162.079,417.034,164.634,417.839,165.132,416.185z"/>
						</g>
						<g>
							<path style="fill:#0D47A1;" d="M167.852,419.911l-4.895-1.472c-1.65-0.496-2.455,2.059-0.801,2.556l4.895,1.472
								C168.701,422.963,169.506,420.408,167.852,419.911z"/>
							<path style="fill:#0D47A1;" d="M162.836,423.82c0.496-1.65-2.059-2.455-2.557-0.801
								C159.783,424.669,162.339,425.474,162.836,423.82z"/>
							<path style="fill:#0D47A1;" d="M161.662,427.725c0.496-1.65-2.059-2.455-2.557-0.801
								C158.609,428.574,161.164,429.38,161.662,427.725z"/>
						</g>
						<g>
							<path style="fill:#0D47A1;" d="M164.382,431.452l-4.895-1.472c-1.65-0.496-2.455,2.059-0.801,2.556l4.895,1.472
								C165.231,434.504,166.036,431.949,164.382,431.452z"/>
							<path style="fill:#0D47A1;" d="M159.366,435.361c0.496-1.65-2.059-2.455-2.557-0.801
								C156.314,436.21,158.869,437.015,159.366,435.361z"/>
							<path style="fill:#0D47A1;" d="M158.192,439.266c0.496-1.65-2.059-2.455-2.556-0.801
								C155.14,440.115,157.695,440.92,158.192,439.266z"/>
						</g>
					</g>
				</g>
				<g>
					
						<rect x="124.934" y="329.077" transform="matrix(0.9943 -0.1066 0.1066 0.9943 -40.0693 16.2845)" style="fill:#0042C4;" width="14.765" height="107.873"/>
					<path style="fill:#D84315;" d="M130.725,437.43l0.09,0.838c0.332,3.093,2.559,5.39,4.975,5.131l5.93-0.636
						c2.416-0.259,4.106-2.976,3.775-6.069l-0.09-0.839L130.725,437.43z"/>
					<polygon style="fill:#FFCB73;" points="122.434,322.896 119.226,330.171 133.907,328.597 129.23,322.168 					"/>
					<polygon style="fill:#212121;" points="125.199,316.625 122.434,322.896 129.23,322.168 					"/>
					
						<rect x="129.228" y="329.077" transform="matrix(0.9943 -0.1066 0.1066 0.9943 -40.0744 16.2869)" style="fill:#6196FF;" width="6.176" height="107.873"/>
				</g>
				<g>
					
						<rect x="104.487" y="369.533" transform="matrix(0.0113 -0.9999 0.9999 0.0113 -220.2517 531.0865)" style="fill:#F9A825;" width="107.873" height="14.765"/>
					<path style="fill:#D84315;" d="M166.412,323.066l0.01-0.843c0.035-3.11-1.907-5.654-4.337-5.681l-5.964-0.067
						c-2.43-0.027-4.428,2.472-4.463,5.582l-0.009,0.843L166.412,323.066z"/>
					<polygon style="fill:#FFCB73;" points="161.157,437.779 165.199,430.932 150.435,430.766 154.322,437.702 					"/>
					<polygon style="fill:#212121;" points="157.673,443.681 161.157,437.779 154.322,437.702 					"/>
					
						<rect x="155.335" y="322.979" transform="matrix(-0.9999 -0.0113 0.0113 -0.9999 312.5956 755.5904)" style="fill:#FDD835;" width="6.176" height="107.873"/>
				</g>
				<g>
					<g>
						<rect x="111.809" y="444.788" style="fill:#37474F;" width="82.044" height="5.77"/>
						<rect x="111.809" y="359.888" style="fill:#37474F;" width="82.044" height="5.77"/>
					</g>
					<g>
						
							<rect x="164.409" y="395.676" transform="matrix(0.7071 -0.7071 0.7071 0.7071 -232.777 234.9128)" style="fill:none;" width="5.524" height="5.524"/>
						
							<rect x="169.246" y="390.839" transform="matrix(0.7071 -0.7071 0.7071 0.7071 -227.9381 236.911)" style="fill:none;" width="5.523" height="5.524"/>
						
							<rect x="135.388" y="395.676" transform="matrix(0.7071 -0.7071 0.7071 0.7071 -241.2704 214.3767)" style="fill:none;" width="5.524" height="5.524"/>
						
							<rect x="169.246" y="410.186" transform="matrix(0.7071 -0.7071 0.7071 0.7071 -241.6186 242.5777)" style="fill:none;" width="5.524" height="5.524"/>
						
							<rect x="159.572" y="390.839" transform="matrix(0.7071 -0.7071 0.7071 0.7071 -230.7713 230.0706)" style="fill:none;" width="5.524" height="5.524"/>
						
							<rect x="140.225" y="390.839" transform="matrix(0.7071 -0.7071 0.7071 0.7071 -236.4336 216.3802)" style="fill:none;" width="5.524" height="5.524"/>
						
							<rect x="164.409" y="405.35" transform="matrix(0.7071 -0.7071 0.7071 0.7071 -239.6173 237.7462)" style="fill:none;" width="5.524" height="5.523"/>
						
							<rect x="154.735" y="395.676" transform="matrix(0.7071 -0.7071 0.7071 0.7071 -235.6082 228.067)" style="fill:none;" width="5.524" height="5.524"/>
						
							<rect x="145.061" y="395.676" transform="matrix(0.7071 -0.7071 0.7071 0.7071 -238.4438 221.2316)" style="fill:none;" width="5.524" height="5.523"/>
						
							<rect x="149.898" y="390.839" transform="matrix(0.7071 -0.7071 0.7071 0.7071 -233.6068 223.2351)" style="fill:none;" width="5.524" height="5.523"/>
						
							<rect x="169.246" y="400.513" transform="matrix(0.7071 -0.7071 0.7071 0.7071 -234.7825 239.7548)" style="fill:none;" width="5.524" height="5.523"/>
						
							<rect x="159.572" y="410.187" transform="matrix(0.7071 -0.7071 0.7071 0.7071 -244.4522 235.7374)" style="fill:none;" width="5.524" height="5.523"/>
						
							<rect x="140.224" y="400.513" transform="matrix(0.7071 -0.7071 0.7071 0.7071 -243.2762 219.2181)" style="fill:none;" width="5.524" height="5.523"/>
						
							<rect x="174.083" y="434.371" transform="matrix(0.7071 -0.7071 0.7071 0.7071 -257.303 253.0811)" style="fill:none;" width="5.523" height="5.523"/>
						
							<rect x="140.225" y="410.186" transform="matrix(0.7071 -0.7071 0.7071 0.7071 -250.1213 222.0616)" style="fill:none;" width="5.523" height="5.524"/>
						
							<rect x="130.551" y="390.84" transform="matrix(0.7071 -0.7071 0.7071 0.7071 -239.2692 209.5449)" style="fill:none;" width="5.524" height="5.523"/>
						
							<rect x="135.388" y="405.35" transform="matrix(0.7071 -0.7071 0.7071 0.7071 -248.1178 217.2246)" style="fill:none;" width="5.523" height="5.523"/>
						
							<rect x="159.573" y="400.513" transform="matrix(0.7071 -0.7071 0.7071 0.7071 -237.6161 232.9144)" style="fill:none;" width="5.524" height="5.524"/>
						
							<rect x="154.735" y="405.35" transform="matrix(0.7071 -0.7071 0.7071 0.7071 -242.4487 230.9007)" style="fill:none;" width="5.524" height="5.524"/>
						
							<rect x="149.898" y="410.187" transform="matrix(0.7071 -0.7071 0.7071 0.7071 -247.2833 228.892)" style="fill:none;" width="5.524" height="5.524"/>
						
							<rect x="145.061" y="405.35" transform="matrix(0.7071 -0.7071 0.7071 0.7071 -245.2774 224.0499)" style="fill:none;" width="5.524" height="5.524"/>
						
							<rect x="149.898" y="400.512" transform="matrix(0.7071 -0.7071 0.7071 0.7071 -240.4428 226.0585)" style="fill:none;" width="5.524" height="5.524"/>
						
							<rect x="169.245" y="419.86" transform="matrix(0.7071 -0.7071 0.7071 0.7071 -248.4591 245.4108)" style="fill:none;" width="5.524" height="5.523"/>
						
							<rect x="149.899" y="371.492" transform="matrix(0.7071 -0.7071 0.7071 0.7071 -219.9202 217.5541)" style="fill:none;" width="5.523" height="5.523"/>
						
							<rect x="154.735" y="376.329" transform="matrix(0.7071 -0.7071 0.7071 0.7071 -221.9296 222.4052)" style="fill:none;" width="5.523" height="5.524"/>
						
							<rect x="159.572" y="371.492" transform="matrix(0.7071 -0.7071 0.7071 0.7071 -217.0889 224.399)" style="fill:none;" width="5.524" height="5.523"/>
						
							<rect x="169.246" y="371.492" transform="matrix(0.7071 -0.7071 0.7071 0.7071 -214.2592 231.2491)" style="fill:none;" width="5.524" height="5.524"/>
						
							<rect x="164.409" y="376.329" transform="matrix(0.7071 -0.7071 0.7071 0.7071 -219.0905 229.2307)" style="fill:none;" width="5.524" height="5.524"/>
						
							<rect x="164.409" y="424.697" transform="matrix(0.7071 -0.7071 0.7071 0.7071 -253.2913 243.3965)" style="fill:none;" width="5.523" height="5.523"/>
						
							<rect x="130.551" y="371.491" transform="matrix(0.7071 -0.7071 0.7071 0.7071 -225.5909 203.8827)" style="fill:none;" width="5.524" height="5.524"/>
						
							<rect x="130.551" y="400.513" transform="matrix(0.7071 -0.7071 0.7071 0.7071 -246.1094 212.378)" style="fill:none;" width="5.523" height="5.524"/>
						
							<rect x="145.062" y="376.329" transform="matrix(0.7071 -0.7071 0.7071 0.7071 -224.761 215.5602)" style="fill:none;" width="5.524" height="5.523"/>
						
							<rect x="140.225" y="371.492" transform="matrix(0.7071 -0.7071 0.7071 0.7071 -222.7575 210.7233)" style="fill:none;" width="5.524" height="5.524"/>
						
							<rect x="135.388" y="376.329" transform="matrix(0.7071 -0.7071 0.7071 0.7071 -227.5966 208.7246)" style="fill:none;" width="5.524" height="5.524"/>
						
							<rect x="178.919" y="419.86" transform="matrix(0.7071 -0.7071 0.7071 0.7071 -245.6254 252.2512)" style="fill:none;" width="5.524" height="5.524"/>
						
							<rect x="178.919" y="429.534" transform="matrix(0.7071 -0.7071 0.7071 0.7071 -252.4684 255.0902)" style="fill:none;" width="5.524" height="5.523"/>
						
							<rect x="178.919" y="439.208" transform="matrix(0.7071 -0.7071 0.7071 0.7071 -259.3018 257.9065)" style="fill:none;" width="5.523" height="5.524"/>
						
							<rect x="178.92" y="371.492" transform="matrix(0.7071 -0.7071 0.7071 0.7071 -211.4206 238.0745)" style="fill:none;" width="5.523" height="5.523"/>
						
							<rect x="169.246" y="429.534" transform="matrix(0.7071 -0.7071 0.7071 0.7071 -255.2948 248.2332)" style="fill:none;" width="5.523" height="5.524"/>
						
							<rect x="178.92" y="410.187" transform="matrix(0.7071 -0.7071 0.7071 0.7071 -238.7894 249.4286)" style="fill:none;" width="5.523" height="5.523"/>
						
							<rect x="178.919" y="381.165" transform="matrix(0.7071 -0.7071 0.7071 0.7071 -218.2608 240.9076)" style="fill:none;" width="5.524" height="5.524"/>
						
							<rect x="178.92" y="390.84" transform="matrix(0.7071 -0.7071 0.7071 0.7071 -225.1069 243.7565)" style="fill:none;" width="5.524" height="5.524"/>
						
							<rect x="178.92" y="400.513" transform="matrix(0.7071 -0.7071 0.7071 0.7071 -231.9431 246.5793)" style="fill:none;" width="5.524" height="5.524"/>
						
							<rect x="125.714" y="376.328" transform="matrix(0.7071 -0.7071 0.7071 0.7071 -230.4276 201.8793)" style="fill:none;" width="5.523" height="5.525"/>
						
							<rect x="145.062" y="434.371" transform="matrix(0.7071 -0.7071 0.7071 0.7071 -265.8055 232.5656)" style="fill:none;" width="5.524" height="5.523"/>
						
							<rect x="149.898" y="439.207" transform="matrix(0.7071 -0.7071 0.7071 0.7071 -267.8062 237.397)" style="fill:none;" width="5.524" height="5.524"/>
						
							<rect x="154.735" y="434.371" transform="matrix(0.7071 -0.7071 0.7071 0.7071 -262.9695 239.4004)" style="fill:none;" width="5.523" height="5.524"/>
						<polygon style="fill:none;" points="139.081,441.97 139.081,441.97 142.986,445.875 146.893,441.969 142.987,438.064 						
							"/>
						
							<rect x="135.388" y="434.371" transform="matrix(0.7071 -0.7071 0.7071 0.7071 -268.6363 225.72)" style="fill:none;" width="5.524" height="5.524"/>
						
							<rect x="159.573" y="439.207" transform="matrix(0.7071 -0.7071 0.7071 0.7071 -264.9755 244.2429)" style="fill:none;" width="5.523" height="5.524"/>
						
							<rect x="169.246" y="439.208" transform="matrix(0.7071 -0.7071 0.7071 0.7071 -262.1397 251.0777)" style="fill:none;" width="5.524" height="5.523"/>
						
							<rect x="120.878" y="371.492" transform="matrix(0.7071 -0.7071 0.7071 0.7071 -228.4264 197.047)" style="fill:none;" width="5.523" height="5.523"/>
						
							<rect x="164.409" y="434.371" transform="matrix(0.7071 -0.7071 0.7071 0.7071 -260.1387 246.2463)" style="fill:none;" width="5.524" height="5.524"/>
						
							<rect x="120.878" y="390.84" transform="matrix(0.7071 -0.7071 0.7071 0.7071 -242.1026 202.7048)" style="fill:none;" width="5.524" height="5.524"/>
						
							<rect x="120.878" y="400.513" transform="matrix(0.7071 -0.7071 0.7071 0.7071 -248.9477 205.5475)" style="fill:none;" width="5.524" height="5.524"/>
						
							<rect x="130.552" y="439.208" transform="matrix(0.7071 -0.7071 0.7071 0.7071 -273.4731 223.7165)" style="fill:none;" width="5.523" height="5.524"/>
						
							<rect x="120.877" y="410.187" transform="matrix(0.7071 -0.7071 0.7071 0.7071 -255.7802 208.3663)" style="fill:none;" width="5.524" height="5.523"/>
						
							<rect x="120.877" y="381.165" transform="matrix(0.7071 -0.7071 0.7071 0.7071 -235.2597 199.8667)" style="fill:none;" width="5.524" height="5.524"/>
						
							<rect x="120.877" y="439.208" transform="matrix(0.7071 -0.7071 0.7071 0.7071 -276.3036 216.871)" style="fill:none;" width="5.524" height="5.524"/>
						
							<rect x="125.715" y="434.371" transform="matrix(0.7071 -0.7071 0.7071 0.7071 -271.4669 218.8745)" style="fill:none;" width="5.523" height="5.524"/>
						
							<rect x="120.878" y="429.534" transform="matrix(0.7071 -0.7071 0.7071 0.7071 -269.4606 214.0327)" style="fill:none;" width="5.523" height="5.524"/>
						
							<rect x="120.877" y="419.86" transform="matrix(0.7071 -0.7071 0.7071 0.7071 -262.6257 211.2092)" style="fill:none;" width="5.524" height="5.524"/>
						
							<rect x="174.083" y="376.329" transform="matrix(0.7071 -0.7071 0.7071 0.7071 -216.2628 236.0862)" style="fill:none;" width="5.524" height="5.523"/>
						
							<rect x="125.714" y="386.002" transform="matrix(0.7071 -0.7071 0.7071 0.7071 -237.2681 204.713)" style="fill:none;" width="5.524" height="5.524"/>
						
							<rect x="174.083" y="415.023" transform="matrix(0.7071 -0.7071 0.7071 0.7071 -243.6242 247.4198)" style="fill:none;" width="5.524" height="5.523"/>
						
							<rect x="174.083" y="395.676" transform="matrix(0.7071 -0.7071 0.7071 0.7071 -229.9436 241.7531)" style="fill:none;" width="5.523" height="5.523"/>
						
							<rect x="174.083" y="405.35" transform="matrix(0.7071 -0.7071 0.7071 0.7071 -236.7818 244.5811)" style="fill:none;" width="5.524" height="5.524"/>
						
							<rect x="174.082" y="424.697" transform="matrix(0.7071 -0.7071 0.7071 0.7071 -250.4625 250.2475)" style="fill:none;" width="5.524" height="5.524"/>
						
							<rect x="125.714" y="395.676" transform="matrix(0.7071 -0.7071 0.7071 0.7071 -244.1108 207.551)" style="fill:none;" width="5.524" height="5.524"/>
						
							<rect x="159.572" y="419.86" transform="matrix(0.7071 -0.7071 0.7071 0.7071 -251.2902 238.5653)" style="fill:none;" width="5.524" height="5.524"/>
						
							<rect x="125.714" y="405.35" transform="matrix(0.7071 -0.7071 0.7071 0.7071 -250.9461 210.3746)" style="fill:none;" width="5.524" height="5.523"/>
						
							<rect x="154.735" y="415.024" transform="matrix(0.7071 -0.7071 0.7071 0.7071 -249.2868 233.7287)" style="fill:none;" width="5.524" height="5.523"/>
						
							<rect x="164.409" y="415.023" transform="matrix(0.7071 -0.7071 0.7071 0.7071 -246.4556 240.5741)" style="fill:none;" width="5.524" height="5.524"/>
						
							<rect x="159.572" y="381.165" transform="matrix(0.7071 -0.7071 0.7071 0.7071 -223.9331 227.2421)" style="fill:none;" width="5.523" height="5.524"/>
						
							<rect x="125.714" y="415.023" transform="matrix(0.7071 -0.7071 0.7071 0.7071 -257.7863 213.2077)" style="fill:none;" width="5.524" height="5.524"/>
						
							<rect x="164.409" y="386.002" transform="matrix(0.7071 -0.7071 0.7071 0.7071 -225.9326 232.069)" style="fill:none;" width="5.523" height="5.524"/>
						
							<rect x="149.898" y="381.165" transform="matrix(0.7071 -0.7071 0.7071 0.7071 -226.7665 220.4018)" style="fill:none;" width="5.524" height="5.524"/>
						
							<rect x="174.083" y="386.002" transform="matrix(0.7071 -0.7071 0.7071 0.7071 -223.1052 238.9246)" style="fill:none;" width="5.524" height="5.524"/>
						
							<rect x="169.246" y="381.166" transform="matrix(0.7071 -0.7071 0.7071 0.7071 -221.1017 234.0876)" style="fill:none;" width="5.524" height="5.524"/>
						
							<rect x="130.551" y="381.166" transform="matrix(0.7071 -0.7071 0.7071 0.7071 -232.429 206.7118)" style="fill:none;" width="5.524" height="5.524"/>
						
							<rect x="135.388" y="386.003" transform="matrix(0.7071 -0.7071 0.7071 0.7071 -234.4324 211.5484)" style="fill:none;" width="5.524" height="5.523"/>
						
							<rect x="145.062" y="386.002" transform="matrix(0.7071 -0.7071 0.7071 0.7071 -231.5991 218.3885)" style="fill:none;" width="5.524" height="5.524"/>
						
							<rect x="140.225" y="381.166" transform="matrix(0.7071 -0.7071 0.7071 0.7071 -229.6 213.5614)" style="fill:none;" width="5.524" height="5.523"/>
						
							<rect x="154.735" y="386.002" transform="matrix(0.7071 -0.7071 0.7071 0.7071 -228.7678 225.2336)" style="fill:none;" width="5.524" height="5.523"/>
						
							<rect x="140.225" y="429.534" transform="matrix(0.7071 -0.7071 0.7071 0.7071 -263.7994 227.7235)" style="fill:none;" width="5.524" height="5.524"/>
						
							<rect x="130.551" y="419.86" transform="matrix(0.7071 -0.7071 0.7071 0.7071 -259.7898 218.0447)" style="fill:none;" width="5.524" height="5.524"/>
						
							<rect x="135.388" y="415.023" transform="matrix(0.7071 -0.7071 0.7071 0.7071 -254.953 220.0481)" style="fill:none;" width="5.524" height="5.524"/>
						
							<rect x="145.062" y="424.697" transform="matrix(0.7071 -0.7071 0.7071 0.7071 -258.9575 229.7166)" style="fill:none;" width="5.524" height="5.524"/>
						
							<rect x="135.388" y="424.697" transform="matrix(0.7071 -0.7071 0.7071 0.7071 -261.7986 222.8918)" style="fill:none;" width="5.524" height="5.524"/>
						
							<rect x="154.735" y="424.697" transform="matrix(0.7071 -0.7071 0.7071 0.7071 -256.1293 236.5671)" style="fill:none;" width="5.524" height="5.524"/>
						
							<rect x="159.572" y="429.534" transform="matrix(0.7071 -0.7071 0.7071 0.7071 -258.1328 241.4039)" style="fill:none;" width="5.524" height="5.524"/>
						
							<rect x="149.899" y="429.534" transform="matrix(0.7071 -0.7071 0.7071 0.7071 -260.961 234.5531)" style="fill:none;" width="5.523" height="5.523"/>
						
							<rect x="130.551" y="410.186" transform="matrix(0.7071 -0.7071 0.7071 0.7071 -252.9571 215.2261)" style="fill:none;" width="5.524" height="5.524"/>
						
							<rect x="149.899" y="419.861" transform="matrix(0.7071 -0.7071 0.7071 0.7071 -254.1283 231.7356)" style="fill:none;" width="5.523" height="5.523"/>
						
							<rect x="145.062" y="415.024" transform="matrix(0.7071 -0.7071 0.7071 0.7071 -252.1248 226.8988)" style="fill:none;" width="5.523" height="5.524"/>
						
							<rect x="140.225" y="419.86" transform="matrix(0.7071 -0.7071 0.7071 0.7071 -256.9591 224.8902)" style="fill:none;" width="5.524" height="5.524"/>
						
							<rect x="130.551" y="429.534" transform="matrix(0.7071 -0.7071 0.7071 0.7071 -266.6328 220.8831)" style="fill:none;" width="5.524" height="5.524"/>
						
							<rect x="125.714" y="424.697" transform="matrix(0.7071 -0.7071 0.7071 0.7071 -264.6293 216.0462)" style="fill:none;" width="5.524" height="5.524"/>
						<polygon style="fill:#37474F;" points="116.793,365.658 116.265,366.186 116.265,368.048 118.655,365.658 						"/>
						<polygon style="fill:#37474F;" points="189.397,366.528 188.527,365.658 186.666,365.658 189.397,368.39 						"/>
						<path style="fill:#37474F;" d="M172.938,446.806l3.906-3.906l3.906,3.906l-0.867,0.867h3.596l-0.867-0.867l3.906-3.906
							l2.879,2.879v-1.862l-1.948-1.948l1.948-1.948v-1.862l-2.879,2.879l-3.906-3.906l3.906-3.906l2.879,2.879v-1.862l-1.948-1.948
							l1.948-1.948v-1.862l-2.879,2.879l-3.906-3.906l3.906-3.906l2.878,2.879v-1.862l-1.947-1.948l1.947-1.947v-1.862l-2.879,2.879
							l-3.906-3.906l3.906-3.905l2.879,2.879v-1.862l-1.948-1.948l1.948-1.948v-1.862l-2.879,2.879l-3.906-3.906l3.906-3.906
							l2.879,2.879v-1.862l-1.948-1.948l1.948-1.948v-1.862l-2.879,2.879l-3.906-3.906l3.906-3.906l2.879,2.879v-1.862l-1.948-1.948
							l1.948-1.948v-1.862l-2.879,2.879l-3.906-3.906l3.906-3.906l2.879,2.879v-1.862l-1.948-1.948l1.948-1.948v-1.862l-2.879,2.879
							l-3.906-3.906l3.906-3.906l2.879,2.879v-1.863l-1.948-1.948l1.948-1.948v-1.862l-2.879,2.879l-3.906-3.905l3.759-3.759h-1.862
							l-2.828,2.828l-2.828-2.828h-1.862l3.759,3.759l-3.906,3.906l-3.906-3.906l3.758-3.758h-1.862l-2.827,2.827l-2.827-2.827
							h-1.862l3.758,3.758l-3.906,3.906l-3.906-3.906l3.759-3.759h-1.862l-2.828,2.828l-2.828-2.828h-1.862l3.759,3.759
							l-3.906,3.906l-3.906-3.906l3.759-3.759h-1.862l-2.828,2.828l-2.828-2.828h-1.862l3.759,3.759l-3.906,3.906l-3.906-3.906
							l3.759-3.759h-1.862l-2.828,2.828l-2.828-2.828h-1.862l3.759,3.759l-3.906,3.906l-3.906-3.906l3.759-3.758h-1.862
							l-2.828,2.827l-2.827-2.827h-1.862l3.758,3.758l-3.906,3.906l-3.905-3.905l3.759-3.759h-1.862l-2.828,2.828l-2.828-2.828
							h-1.862l3.759,3.759l-3.906,3.905l-2.537-2.537v1.862l1.606,1.606l-1.606,1.606v1.863l2.538-2.538l3.905,3.905l-3.906,3.906
							l-2.537-2.537v1.862l1.606,1.606l-1.606,1.606v1.862l2.537-2.537l3.906,3.906l-3.906,3.906l-2.537-2.537v1.862l1.606,1.606
							l-1.606,1.606v1.862l2.537-2.538l3.906,3.906l-3.906,3.906l-2.537-2.537v1.862l1.606,1.606l-1.606,1.606v1.862l2.537-2.537
							l3.906,3.906l-3.906,3.906l-2.537-2.537v1.862l1.606,1.606l-1.606,1.606v1.862l2.537-2.537l3.906,3.906l-3.906,3.906
							l-2.537-2.537v1.862l1.606,1.606l-1.606,1.606v1.862l2.537-2.537l3.906,3.906l-3.906,3.906l-2.537-2.537v1.862l1.606,1.606
							l-1.606,1.607v1.862l2.537-2.537l3.906,3.906l-3.906,3.906l-2.537-2.537v1.862l1.606,1.606l-1.606,1.606v1.862l2.537-2.537
							l3.906,3.906l-0.867,0.867h3.595l-0.867-0.867l3.906-3.906l3.906,3.906l-0.867,0.867h1.862l4.772-4.772l4.772,4.772h1.862
							l-0.867-0.867l3.906-3.906l3.906,3.906l-0.867,0.867h3.596l-0.867-0.867l3.906-3.906l3.906,3.906l-0.867,0.867h1.862
							l4.772-4.772l4.773,4.772h1.862L172.938,446.806z M172.939,437.133l3.906-3.906l3.906,3.906l-3.906,3.905L172.939,437.133z
							 M142.055,408.112l-3.905,3.905l-3.906-3.906l3.906-3.905L142.055,408.112z M139.081,403.275l3.906-3.906l3.906,3.906
							l-3.906,3.906L139.081,403.275z M142.986,409.043l3.906,3.906l-3.906,3.906l-3.906-3.906L142.986,409.043z M143.917,408.112
							l3.906-3.906l3.906,3.906l-3.906,3.906L143.917,408.112z M148.754,403.275l3.906-3.906l3.906,3.907l-3.906,3.906
							L148.754,403.275z M152.66,409.043l3.906,3.906l-3.906,3.906l-3.906-3.906L152.66,409.043z M153.591,408.112l3.906-3.906
							l3.906,3.906l-3.906,3.906L153.591,408.112z M158.428,403.275l3.906-3.906l3.906,3.906l-3.906,3.906L158.428,403.275z
							 M162.335,409.043l3.906,3.906l-3.906,3.906l-3.906-3.906L162.335,409.043z M163.266,408.112l3.906-3.906l3.906,3.905
							l-3.906,3.906L163.266,408.112z M172.008,409.042l3.906,3.906l-3.906,3.906l-3.906-3.906L172.008,409.042z M168.102,403.275
							l3.906-3.906l3.906,3.906l-3.906,3.906L168.102,403.275z M168.102,393.601l3.906-3.906l3.906,3.906l-3.906,3.906
							L168.102,393.601z M171.077,398.438l-3.906,3.906l-3.906-3.906l3.906-3.906L171.077,398.438z M162.334,397.507l-3.906-3.906
							l3.906-3.906l3.906,3.906L162.334,397.507z M161.403,398.438l-3.906,3.906l-3.906-3.906l3.906-3.906L161.403,398.438z
							 M152.66,397.506l-3.906-3.905l3.906-3.906l3.906,3.906L152.66,397.506z M151.729,398.437l-3.906,3.906l-3.906-3.906
							l3.906-3.906L151.729,398.437z M142.987,397.507l-3.906-3.906l3.906-3.906l3.906,3.906L142.987,397.507z M142.056,398.438
							l-3.906,3.906l-3.906-3.906l3.906-3.906L142.056,398.438z M133.313,397.507l-3.906-3.906l3.906-3.906l3.906,3.906
							L133.313,397.507z M137.219,403.275l-3.906,3.905l-3.906-3.906l3.906-3.906L137.219,403.275z M137.219,412.948l-3.906,3.906
							l-3.906-3.906l3.906-3.906L137.219,412.948z M137.219,422.622l-3.906,3.906l-3.906-3.906l3.906-3.906L137.219,422.622z
							 M134.244,417.785l3.906-3.906l3.906,3.906l-3.906,3.906L134.244,417.785z M142.987,418.716l3.906,3.906l-3.906,3.906
							l-3.906-3.906L142.987,418.716z M143.918,417.785l3.906-3.906l3.906,3.906l-3.906,3.906L143.918,417.785z M152.66,418.717
							l3.906,3.906l-3.906,3.906l-3.906-3.906L152.66,418.717z M153.591,417.786l3.906-3.906l3.906,3.906l-3.906,3.906
							L153.591,417.786z M162.334,418.716l3.906,3.906l-3.906,3.906l-3.906-3.906L162.334,418.716z M163.265,417.785l3.906-3.906
							l3.906,3.906l-3.906,3.906L163.265,417.785z M172.008,418.716l3.905,3.905l-3.906,3.906l-3.906-3.906L172.008,418.716z
							 M176.844,423.553l3.906,3.906l-3.906,3.906l-3.906-3.906L176.844,423.553z M172.939,417.785l3.906-3.906l3.906,3.905
							l-3.906,3.906L172.939,417.785z M172.939,408.111l3.906-3.906l3.906,3.906l-3.906,3.906L172.939,408.111z M172.939,398.438
							l3.906-3.906l3.906,3.906l-3.906,3.906L172.939,398.438z M172.939,388.764l3.906-3.906l3.906,3.906l-3.906,3.906
							L172.939,388.764z M172.008,387.833l-3.906-3.906l3.906-3.906l3.906,3.906L172.008,387.833z M171.077,388.764l-3.906,3.906
							l-3.906-3.906l3.905-3.905L171.077,388.764z M162.334,387.833l-3.906-3.906l3.906-3.906l3.906,3.906L162.334,387.833z
							 M161.403,388.764l-3.906,3.906l-3.906-3.906l3.906-3.906L161.403,388.764z M152.66,387.833l-3.906-3.906l3.906-3.906
							l3.906,3.906L152.66,387.833z M151.729,388.764l-3.906,3.906l-3.906-3.906l3.906-3.906L151.729,388.764z M142.987,387.833
							l-3.906-3.905l3.906-3.906l3.906,3.906L142.987,387.833z M142.056,388.764l-3.906,3.906l-3.906-3.906l3.906-3.906
							L142.056,388.764z M133.313,387.833l-3.906-3.906l3.906-3.906l3.906,3.906L133.313,387.833z M132.382,388.764l-3.906,3.906
							l-3.906-3.906l3.906-3.906L132.382,388.764z M132.382,398.438l-3.906,3.906l-3.906-3.906l3.906-3.906L132.382,398.438z
							 M132.382,408.111l-3.906,3.906l-3.906-3.906l3.906-3.906L132.382,408.111z M132.382,417.785l-3.906,3.906l-3.906-3.906
							l3.906-3.906L132.382,417.785z M132.382,427.459l-3.906,3.906l-3.906-3.906l3.906-3.906L132.382,427.459z M133.313,428.39
							l3.906,3.906l-3.906,3.906l-3.906-3.906L133.313,428.39z M134.244,427.459l3.906-3.906l3.906,3.906l-3.906,3.906
							L134.244,427.459z M142.987,428.39l3.906,3.906l-3.906,3.906l-3.906-3.906L142.987,428.39z M143.918,427.459l3.906-3.906
							l3.906,3.906l-3.906,3.906L143.918,427.459z M152.66,428.39l3.906,3.906l-3.906,3.906l-3.906-3.906L152.66,428.39z
							 M153.591,427.459l3.906-3.906l3.906,3.906l-3.906,3.906L153.591,427.459z M162.334,428.39l3.906,3.906l-3.906,3.906
							l-3.906-3.906L162.334,428.39z M163.265,427.459l3.906-3.906l3.905,3.906l-3.905,3.906L163.265,427.459z M172.007,428.39
							l3.906,3.906l-3.905,3.905l-3.906-3.906L172.007,428.39z M185.587,441.97l-3.906,3.906l-3.906-3.906l3.906-3.905
							L185.587,441.97z M185.587,432.296l-3.906,3.906l-3.906-3.906l3.906-3.906L185.587,432.296z M185.588,422.622l-3.906,3.906
							l-3.906-3.906l3.906-3.906L185.588,422.622z M185.587,412.948l-3.906,3.905l-3.906-3.905l3.906-3.906L185.587,412.948z
							 M185.587,403.275l-3.906,3.906l-3.906-3.906l3.906-3.906L185.587,403.275z M185.587,393.601l-3.906,3.906l-3.906-3.906
							l3.906-3.906L185.587,393.601z M185.587,383.927l-3.906,3.906l-3.906-3.906l3.906-3.906L185.587,383.927z M181.682,370.348
							l3.905,3.905l-3.906,3.906l-3.906-3.906L181.682,370.348z M180.75,379.09l-3.906,3.906l-3.906-3.906l3.906-3.906
							L180.75,379.09z M172.008,370.348l3.906,3.906l-3.906,3.906l-3.906-3.906L172.008,370.348z M171.077,379.091l-3.906,3.906
							l-3.906-3.906l3.906-3.906L171.077,379.091z M162.334,370.348l3.906,3.906l-3.906,3.906l-3.906-3.906L162.334,370.348z
							 M161.403,379.091l-3.906,3.906l-3.906-3.906l3.906-3.906L161.403,379.091z M152.66,370.348l3.906,3.906l-3.906,3.906
							l-3.906-3.906L152.66,370.348z M151.73,379.09l-3.906,3.906l-3.906-3.906l3.906-3.906L151.73,379.09z M142.987,370.348
							l3.906,3.906l-3.906,3.906l-3.906-3.906L142.987,370.348z M142.056,379.091l-3.906,3.906l-3.906-3.906l3.906-3.906
							L142.056,379.091z M133.313,370.348l3.906,3.906l-3.906,3.906l-3.906-3.906L133.313,370.348z M132.382,379.091l-3.906,3.906
							l-3.906-3.906l3.906-3.906L132.382,379.091z M119.734,374.254l3.905-3.905l3.905,3.905l-3.906,3.905L119.734,374.254z
							 M119.733,383.927l3.906-3.906l3.906,3.906l-3.906,3.906L119.733,383.927z M119.734,393.601l3.906-3.906l3.906,3.906
							l-3.906,3.906L119.734,393.601z M119.734,403.275l3.906-3.906l3.906,3.906l-3.906,3.906L119.734,403.275z M119.734,412.949
							l3.906-3.906l3.906,3.906l-3.906,3.906L119.734,412.949z M119.733,422.622l3.906-3.906l3.906,3.906l-3.906,3.906
							L119.733,422.622z M119.734,432.296l3.906-3.906l3.906,3.906l-3.906,3.905L119.734,432.296z M123.639,445.876l-3.906-3.906
							l3.906-3.906l3.906,3.906L123.639,445.876z M124.571,437.133l3.906-3.905l3.906,3.906l-3.905,3.905L124.571,437.133z
							 M133.314,445.875l-3.906-3.906l3.905-3.905l3.906,3.906L133.314,445.875z M134.244,437.133l3.906-3.906l3.906,3.906
							l-3.906,3.906L134.244,437.133z M142.986,445.875l-3.905-3.905l0,0l3.906-3.906l3.906,3.906L142.986,445.875z
							 M143.918,437.133l3.906-3.906l3.906,3.906l-3.906,3.906L143.918,437.133z M152.66,445.875l-3.906-3.906l3.906-3.906
							l3.906,3.906L152.66,445.875z M153.591,437.132l3.906-3.906l3.906,3.906l-3.906,3.906L153.591,437.132z M162.335,445.875
							l-3.906-3.906l3.906-3.906l3.906,3.906L162.335,445.875z M163.265,437.133l3.906-3.906l3.906,3.906l-3.906,3.906
							L163.265,437.133z M168.102,441.97l3.906-3.906l3.905,3.906l-3.906,3.906L168.102,441.97z"/>
					</g>
					<rect x="114.68" y="365.658" style="fill:#37474F;" width="1.585" height="79.78"/>
					<rect x="189.397" y="365.658" style="fill:#37474F;" width="1.585" height="79.78"/>
				</g>
			</g>
		</g>
		<g>
			<path style="fill:#162440;" d="M590.593,255.697c-6.419-3.9-14.234-5.54-22.049-6.765c-7.621-1.195-15.705-0.746-22.616,2.68
				c-8.31,4.12-14.312,12.582-15.451,21.788c-5.473-1.629-11.146,0.742-15.21,4.753c-4.064,4.011-6.42,9.429-8.167,14.865
				c-2.803,8.721-4.276,18.128-2.236,27.059c2.643,11.567,11.133,21.323,21.574,26.96c10.441,5.637,22.651,7.431,34.493,6.677
				c5.873-0.374,11.904-1.424,16.821-4.657c5.79-3.808,9.343-10.159,12.286-16.432c5.394-11.495,9.507-23.592,12.236-35.993
				c2.153-9.781,3.448-21.274-1.562-30.408C598.127,261.509,594.637,258.154,590.593,255.697z"/>
			<g>
				<g>
					<path style="fill:#FFCCBC;" d="M532.005,391.517l-19.273,13.66c-3.123,2.213-7.093,2.862-10.758,1.757l-45.324-13.666
						l1.282-16.085l37.114-2.154l6.288,2.472l12.766-9.947L532.005,391.517z"/>
					<path style="fill:#162440;" d="M584.604,365.546c0,0-17.838-34.902-36.711-37.159c-15.91-1.903-31.227,30.966-38.247,38.737
						c-1.193,1.32-1.272,3.303-0.185,4.711l15.84,20.513c1.516,1.964,4.305,2.396,6.345,0.983L584.604,365.546z"/>
					<path style="fill:#162440;" d="M457.932,377.183l-15.744-1.825c-1.08-0.125-2.01,0.755-1.946,1.84l1.929,32.505
						c0.069,1.153,1.217,1.924,2.31,1.55l0,0c3.241-1.109,5.758-3.699,6.772-6.971l1.913-6.172l3.484-4.842L457.932,377.183z"/>
				</g>
				<g>
					<path style="fill:#FFCCBC;" d="M585.976,361.832l23.365,9.212c3.786,1.493,6.671,4.649,7.819,8.554l14.19,48.289l-15.062,8.211
						l-23.497-31.783l-1.456-7.034l-16.277-5.58L585.976,361.832z"/>
					<path style="fill:#1B2C4F;" d="M532.274,330.114c0,0-18.165,23.987-9.2,42.097c7.558,15.268,43.19,21.976,54.189,23.705
						c1.869,0.294,3.679-0.788,4.301-2.575l9.049-26.026c0.866-2.492-0.371-5.225-2.815-6.219l-4.676-1.901l2.172-9.103
						L532.274,330.114z"/>
					<path style="fill:#162440;" d="M616.287,436.099l7.53,15.075c0.516,1.034,1.841,1.351,2.769,0.662l27.811-20.617
						c0.987-0.731,1.005-2.202,0.037-2.958l0,0c-2.871-2.241-6.64-2.974-10.142-1.974l-6.606,1.886l-6.336-0.286L616.287,436.099z"
						/>
				</g>
				<g>
					<path style="fill:#82B1FF;" d="M616.619,279.32c-15.29-12.285-34.023-20.819-53.748-24.396
						c-2.115-0.383-4.156,0.985-4.596,3.089c-4.794,22.963-14.157,45.65-27.505,65.436c-3.521,5.219-2.38,12.26,2.556,16.166
						c14.514,11.485,29.701,18.065,48.345,16.574c4.158-0.332,12.575-4.025,15.093-7.351c11.811-15.604,20.512-32.774,25.712-51.479
						C624.322,290.717,621.993,283.638,616.619,279.32z"/>
					<g>
						
							<rect x="471.914" y="267.921" transform="matrix(0.772 0.6357 -0.6357 0.772 299.2088 -255.4787)" style="fill:#F9A825;" width="67.523" height="42.718"/>
						<g>
							<path style="fill:#FFCCBC;" d="M512.89,259.34c-1.717,1.476-2.975,3.427-4.188,5.349c-5.77,9.137-11.683,18.139-17.658,27.14
								c-0.729,1.099-1.49,2.312-1.374,3.625c0.148,1.681,1.652,2.878,3.065,3.803c5.734,3.757,15.526,12.65,20.409,3.251
								c3.472-6.683,6.954-13.383,9.752-20.384c2.578-6.452,5.042-13.086,2.316-19.935c-1.991-5.001-7.613-6.519-11.883-3.209
								C513.18,259.097,513.033,259.216,512.89,259.34z"/>
							<path style="fill:#FFCCBC;" d="M493.403,290.26c-1.937,1.952-4.263,3.477-6.272,5.355c-2.01,1.878-3.756,4.262-4.01,7
								c-0.254,2.739,1.446,5.778,4.156,6.249c0.328,1.47,1.515,2.885,2.777,3.707c1.262,0.822,2.85,1.127,4.327,0.832
								c0.76,2.206,3.175,3.896,5.506,4.006c2.331,0.109,4.66-1.316,5.623-3.44c2.866-0.544,5.4-2.634,6.561-5.31
								c1.161-2.675,0.91-5.919-0.649-8.383L493.403,290.26z"/>
						</g>
						<path style="fill:#82B1FF;" d="M515.386,257.788l44.642-2.798c1.072-0.067,1.958,0.825,1.871,1.895
							c-0.384,4.692-2.189,16.648-10.679,26.054l-27.834-2.051L515.386,257.788z"/>
					</g>
					<g>
						<g>
							<g>
								<path style="fill:#FFCCBC;" d="M640.394,326.355c2.252-0.229,4.4-1.112,6.494-1.996c9.957-4.199,19.955-8.205,30.002-12.176
									c1.226-0.485,2.544-1.045,3.199-2.189c0.839-1.464,0.289-3.306-0.341-4.873c-2.558-6.36-5.508-19.255-14.888-14.333
									c-6.669,3.499-13.356,7.007-19.653,11.152c-5.803,3.82-11.617,7.855-13.295,15.033c-1.225,5.241,2.52,9.701,7.916,9.425
									C640.017,326.389,640.206,326.374,640.394,326.355z"/>
								<path style="fill:#FFCCBC;" d="M674.057,312.123c2.705-0.495,5.485-0.417,8.208-0.809c2.722-0.392,5.518-1.35,7.292-3.452
									c1.774-2.102,2.116-5.568,0.161-7.503c0.571-1.394,0.406-3.233-0.16-4.629c-0.566-1.396-1.694-2.554-3.075-3.156
									c0.637-2.244-0.378-5.012-2.228-6.434c-1.85-1.422-4.575-1.584-6.58-0.391c-2.662-1.192-5.936-0.925-8.419,0.607
									c-2.482,1.531-4.13,4.336-4.259,7.25L674.057,312.123z"/>
							</g>
							<path style="fill:#82B1FF;" d="M637.459,326.201l-37.796-22.066c0,0,2.993-16.449,15.813-21.845
								c1.941-0.817,4.183-0.441,5.786,0.925l22.837,19.459L637.459,326.201z"/>
						</g>
						<path style="fill:#FFAB91;" d="M680.756,286.948c-0.738-1.426-3.032-0.413-2.288,1.025c0.738,1.428,3.168,6.787,0.722,7.746
							c-0.979,0.384-2.502-0.63-3.094-1.305c-1.039-1.185-1.177-2.665-0.829-4.143c0.369-1.566-2.126-1.822-2.492-0.27
							c-0.952,4.036,2.277,8.954,6.818,8.192C684.732,297.332,682.254,289.844,680.756,286.948z"/>
						<path style="fill:#FFAB91;" d="M676.629,295.461c-0.106-1.607-2.581-1.198-2.475,0.403c0.153,2.312-1.55,4.027-3.776,4.253
							c-1.604,0.162-1.2,2.637,0.403,2.475C674.459,302.219,676.869,299.072,676.629,295.461z"/>
						<path style="fill:#FFAB91;" d="M682.185,301.132c-2.276,0.916-4.46-1.223-3.621-3.514c0.555-1.515-1.776-2.439-2.332-0.922
							c-1.607,4.389,2.657,8.462,6.978,6.724C684.708,302.818,683.683,300.529,682.185,301.132z"/>
						<path style="fill:#FFAB91;" d="M688.383,305.524c-1.158,1.666-1.889,2.257-3.954,2.448c-0.877,0.081-2.12,0.01-2.722-0.75
							c-1.082-1.366,0.527-2.983,1.621-3.649c1.359-0.828,0.353-3.128-1.025-2.288c-1.745,1.063-3.279,2.505-3.427,4.671
							c-0.116,1.701,0.825,3.216,2.336,3.956c3.634,1.781,7.062,0.162,9.188-2.898C691.32,305.69,689.305,304.198,688.383,305.524z"
							/>
					</g>
					<path style="fill:#69A1FF;" d="M605.379,281.946c-8.214,7.164-20.737,3.515-23.399-7.179c-0.387-1.553-2.866-1.168-2.475,0.403
						c3.095,12.431,17.701,17.228,27.446,8.729C608.165,282.84,606.598,280.883,605.379,281.946z"/>
					<path style="fill:#69A1FF;" d="M525.698,278.697c-2.471-6.546-4.943-13.092-7.414-19.637c-0.57-1.51-2.857-0.482-2.288,1.025
						c2.471,6.546,4.943,13.092,7.414,19.637C523.98,281.232,526.268,280.204,525.698,278.697z"/>
					<path style="fill:#69A1FF;" d="M617.338,302.947c-3.241,12.512-8.216,24.531-15.05,35.518
						c-3.073,4.94-6.533,10.073-11.808,12.872c-5.778,3.066-12.596,3.037-18.955,2.748c-1.604-0.073-1.885,2.419-0.269,2.492
						c5.968,0.271,12.18,0.302,17.843-1.873c5.604-2.153,9.65-6.461,12.981-11.312c8.189-11.927,13.972-25.555,17.59-39.522
						C620.069,302.326,617.742,301.389,617.338,302.947z"/>
				</g>
				<g>
					<path style="fill:#37474F;" d="M633.753,226.592c2.64-1.991,4.418-5.088,4.807-8.371c0.389-3.284-0.615-6.71-2.716-9.263
						c2.343-3.465,1.753-9.59-0.25-13.261c-2.003-3.672-5.483-6.342-9.209-8.242c-12.136-6.188-27.838-4.566-38.452,3.973
						c-5.981-1.72-12.868,0.405-17.697,4.331c-2.363,1.921-4.322,4.546-4.717,7.566c-0.394,3.019,1.125,6.391,3.967,7.485
						c-3.424,0.542-6.656,2.867-8.871,5.533c-2.215,2.666-3.125,6.514-1.845,9.735c1.28,3.221,4.947,5.462,8.322,4.673
						c-0.963,0.91,0.146,2.894,1.259,3.613c1.113,0.719,2.53,0.704,3.855,0.664c6.032,7.681,11.163,16.671,14.534,25.837
						c6.396-14.257,17.663-26.728,31.586-33.821C622.156,225.09,629.547,225.703,633.753,226.592z"/>
					<path style="fill:#FFCCBC;" d="M607.297,266.716c6.477,1.403,13.151,2.812,19.68,1.674c6.529-1.137,12.96-5.453,14.542-11.888
						c0.902-3.668,0.158-7.517-0.594-11.219c-2.354-11.602-4.238-23.762-7.215-35.22c-12.361-1.996-26.074-0.661-38.175,2.557
						c0.299,3.303-0.323,7.461-0.023,10.764c-3.11,4.325-6.272,9.257-7.865,14.341c-3.1-2.753-7.944-3.825-11.472-1.076
						c-1.007,0.785-1.775,1.866-2.176,3.078c-1.27,3.837,1.242,6.743,4.211,8.096c1.958,0.893,4.122,1.207,6.253,1.511
						c1.445,8.527,2.143,14.105,0.72,21.427c-0.99,5.098,1.794,10.214,6.674,11.988c0.126,0.046,0.253,0.091,0.379,0.135
						c5.996,2.09,12.431-1.812,13.636-8.047C606.333,272.455,606.795,270.035,607.297,266.716z"/>
					<path style="fill:#FFAB91;" d="M585.458,240.68c-1.631-2.23-4.229-3.588-7-3.593c-1.642-0.003-1.938,2.561-0.277,2.564
						c2.151,0.004,3.994,0.904,5.268,2.646C584.431,243.639,586.437,242.018,585.458,240.68z"/>
					<path style="fill:#37474F;" d="M623.55,253.432c-4.443-0.129-8.363-1.682-11.694-4.631c-1.245-1.102-2.767,0.981-1.533,2.074
						c3.623,3.208,8.113,4.981,12.95,5.121C624.921,256.043,625.212,253.48,623.55,253.432z"/>
					<path style="fill:#FFAB91;" d="M635.111,237.652c-1.136-3.037-4.906-3.738-7.275-1.714c-1.262,1.077,0.352,3.089,1.617,2.009
						c1.316-1.124,3.366-0.536,3.364,1.379c-0.002,1.594-1.371,2.597-2.692,3.172c-1.521,0.663-0.471,3.018,1.055,2.354
						C633.932,243.652,636.288,240.799,635.111,237.652z"/>
					<path style="fill:#37474F;" d="M615.955,235.376c-0.288-1.63-0.575-3.26-0.863-4.89c-0.288-1.631-2.836-1.226-2.546,0.414
						c0.288,1.63,0.575,3.26,0.863,4.889C613.697,237.421,616.244,237.016,615.955,235.376z"/>
					<path style="fill:#37474F;" d="M635.734,233.627c-0.288-1.63-0.575-3.26-0.863-4.89c-0.288-1.631-2.836-1.226-2.546,0.414
						c0.288,1.63,0.576,3.26,0.863,4.89C633.476,235.673,636.024,235.268,635.734,233.627z"/>
					<path style="fill:#37474F;" d="M615.607,215.408c-3.991-0.718-7.924,0.809-10.517,3.89c-1.071,1.273,1.01,2.798,2.074,1.533
						c2.033-2.416,5.087-3.414,8.166-2.86C616.964,218.265,617.234,215.7,615.607,215.408z"/>
					<path style="fill:#37474F;" d="M635.09,217.097c-1.761-2.451-4.957-3.293-7.739-2.229c-1.55,0.593-0.494,2.946,1.055,2.354
						c1.746-0.668,3.607,0.006,4.675,1.492C634.051,220.065,636.056,218.442,635.09,217.097z"/>
				</g>
			</g>
			<path style="fill:#162440;" d="M555.486,251.167c0.323,1.636,1.248,3.2,2.971,4.386c6.697,4.608,4.298,14.588,2.415,20.971
				c-2.265,7.68-4.799,15.44-8.214,22.694c-6.357,13.502-16.443,25.708-31.854,28.335c-8.869,1.511-5.275,15.048,3.566,13.542
				c20.818-3.548,34.577-21.12,42.438-39.471c5.91-13.798,14.031-33.729,7.391-48.122
				C568.057,252.159,561.836,251.316,555.486,251.167z"/>
			<path style="fill:#162440;" d="M635.462,321.195c-0.12,1.19-0.32,2.36-0.58,3.5c-3.54,15.71-19.31,26.13-35.07,21.76
				c0.03-0.04,0.06-0.08,0.09-0.12c0.31-0.38,0.6-0.76,0.9-1.15c0.08-0.11,0.16-0.22,0.25-0.34c0.35-0.48,0.7-0.96,1.03-1.45
				c0.55-0.8,1.09-1.62,1.62-2.44c0.48-0.74,0.95-1.48,1.4-2.23c0.12-0.18,0.23-0.37,0.35-0.56c0.42-0.69,0.83-1.39,1.23-2.1
				c0.51-0.88,1.01-1.78,1.5-2.68c3.03-0.14,5.95-1.2,8.53-3.47c3.82-3.39,4.99-8.13,4.91-12.96c-0.01-1.68-0.18-3.36-0.44-5
				c-0.33-2.13-11.23-37.68-14.77-39.94c0.28-1.56,0.58-3.26,0.88-5.3c3.37,0.73,6.8,1.46,10.22,1.83
				c4.76,6.43,9.25,14.07,12.58,22.19C634.152,300.645,636.492,311.245,635.462,321.195z"/>
		</g>
	</g>
</g>
</svg>
