<svg xmlns="http://www.w3.org/2000/svg" version="1.1" xmlns:xlink="http://www.w3.org/1999/xlink" xmlns:svgjs="http://svgjs.dev/svgjs" width="1440" height="560" preserveAspectRatio="none" viewBox="0 0 1440 560"><g mask="url(&quot;#SvgjsMask1023&quot;)" fill="none"><path d="M981.81 70.4L1006.96 70.4L1006.96 95.55L981.81 95.55z" fill="#d3b714"></path><path d="M177.8 379.84L182.24 379.84L182.24 386.54L177.8 386.54z" fill="#037b0b"></path><path d="M1015.54 482.02a48.06 48.06 0 1 0-37.31-88.58z" stroke="#037b0b"></path><path d="M879.07 182.75a11.24 11.24 0 1 0 22.36-2.24z" fill="#d3b714"></path><path d="M1367.22 521.1 a49 49 0 1 0 98 0 a49 49 0 1 0 -98 0z" stroke="#d3b714"></path><path d="M773.12 176.22L796.35 176.22L796.35 199.45L773.12 199.45z" stroke="#037b0b"></path><path d="M427.4 313.54 a9.22 9.22 0 1 0 18.44 0 a9.22 9.22 0 1 0 -18.44 0z" stroke="#e73635"></path><path d="M168.87 338.29L194.7 338.29L194.7 383.06L168.87 383.06z" fill="#e73635"></path><path d="M1153.98 283.37a19.95 19.95 0 1 0 37.16-14.52z" fill="#e73635"></path><path d="M1257.95 295.44L1288.11 295.44L1288.11 325.6L1257.95 325.6z" stroke="#037b0b"></path><path d="M741.95 536.89L789.27 536.89L789.27 544.77L741.95 544.77z" stroke="#d3b714"></path><path d="M1299.81 97.54 a2.31 2.31 0 1 0 4.62 0 a2.31 2.31 0 1 0 -4.62 0z" stroke="#037b0b"></path><path d="M475.45 46.01a26.52 26.52 0 1 0-50.73-15.47z" fill="#d3b714"></path><path d="M121.1 236.32L136.96 236.32L136.96 252.18L121.1 252.18z" stroke="#d3b714"></path><path d="M258.86 506.74 a46.86 46.86 0 1 0 93.72 0 a46.86 46.86 0 1 0 -93.72 0z" stroke="#e73635"></path><path d="M1043.87 39.25L1067.99 39.25L1067.99 63.37L1043.87 63.37z" stroke="#e73635"></path><path d="M482.79 9.29a1.74 1.74 0 1 0 1.51 3.14z" stroke="#e73635"></path><path d="M523.9 188.13L548.99 188.13L548.99 213.22L523.9 213.22z" fill="#e73635"></path><path d="M346.22 169.06L373.16 169.06L373.16 196L346.22 196z" stroke="#d3b714"></path><path d="M958.05 409.69a7.83 7.83 0 1 0-4.37 15.04z" stroke="#037b0b"></path><path d="M906.75 228.68L936.54 228.68L936.54 258.47L906.75 258.47z" stroke="#d3b714"></path><path d="M1278.18 33.09L1284.06 33.09L1284.06 38.97L1278.18 38.97z" fill="#d3b714"></path><path d="M63.4 257.43L71.49 257.43L71.49 299.44L63.4 299.44z" stroke="#e73635"></path><path d="M710.49 446.12L721.82 446.12L721.82 457.45L710.49 457.45z" stroke="#e73635"></path><path d="M1156.96 556.35L1174.31 556.35L1174.31 573.7L1156.96 573.7z" fill="#037b0b"></path><path d="M635.25 590.65a42.67 42.67 0 1 0 27.54-80.78z" stroke="#037b0b"></path><path d="M285.97 382.38 a5.71 5.71 0 1 0 11.42 0 a5.71 5.71 0 1 0 -11.42 0z" stroke="#e73635"></path><path d="M404.91 195.52a24.88 24.88 0 1 0-3.57 49.63z" fill="#037b0b"></path><path d="M1147.04 197.07L1154.99 197.07L1154.99 205.02L1147.04 205.02z" stroke="#037b0b"></path><path d="M619.29 39.94a11.64 11.64 0 1 0 4.33-22.87z" fill="#037b0b"></path><path d="M1432.7 285.64a7.63 7.63 0 1 0 12.4-8.91z" fill="#037b0b"></path><path d="M693.48 345.2a37.66 37.66 0 1 0-45.85 59.75z" fill="#e73635"></path><path d="M1236.27 494.49a39.81 39.81 0 1 0 51.82 60.45z" fill="#037b0b"></path></g><defs><mask id="SvgjsMask1023"><rect width="1440" height="560" fill="#ffffff"></rect></mask></defs></svg>