<?xml version="1.0" encoding="utf-8"?>
<!-- Generator: Adobe Illustrator 22.1.0, SVG Export Plug-In . SVG Version: 6.00 Build 0)  -->
<svg version="1.1" baseProfile="basic" id="Layer_1"
	 xmlns="http://www.w3.org/2000/svg" xmlns:xlink="http://www.w3.org/1999/xlink" x="0px" y="0px" width="90px" height="90px"
	 viewBox="0 0 90 90" xml:space="preserve">
<path d="M32.619,57.381l9.146,9.146c0.819,0.819,2.078,1.004,3.098,0.457l10.96-5.884c0.811-0.435,1.79-0.414,2.581,0.055
	l15.992,9.49c1.141,0.677,1.6,2.093,1.066,3.308c-1.367,3.11-3.854,8.81-4.842,11.33c-0.208,0.53-0.517,1.016-0.948,1.389
	C59.015,95.91,37.81,84.653,21.578,68.422C5.347,52.19-5.91,30.985,3.329,20.327c0.373-0.431,0.859-0.74,1.389-0.948
	c2.52-0.988,8.22-3.476,11.33-4.842c1.215-0.534,2.631-0.075,3.308,1.066l9.49,15.992c0.47,0.791,0.491,1.771,0.055,2.581
	l-5.884,10.96c-0.548,1.02-0.362,2.279,0.457,3.098C23.473,48.235,32.619,57.381,32.619,57.381z"/>
<g>
	<path d="M23.226,13.308l1.264,2.13C30.314,11.385,37.382,9,45,9c19.85,0,36,16.15,36,36c0,7.618-2.385,14.685-6.438,20.51
		l2.132,1.265c2.265,1.344,3.531,3.777,3.482,6.276C86.319,65.356,90,55.611,90,45C90,20.147,69.853,0,45,0
		C34.389,0,24.644,3.681,16.95,9.825C19.449,9.775,21.882,11.042,23.226,13.308z"/>
</g>
<g>
	<path d="M50.74,49.251H36.523v-3.635c1.204-1.097,2.285-2.134,3.242-3.111c0.958-0.977,1.8-1.905,2.528-2.782
		c0.944-1.146,1.629-2.154,2.053-3.021c0.425-0.867,0.637-1.76,0.637-2.677c0-1.037-0.269-1.832-0.806-2.386
		c-0.537-0.553-1.287-0.83-2.248-0.83c-0.494,0-0.959,0.07-1.397,0.209s-0.882,0.319-1.332,0.539
		c-0.442,0.229-0.819,0.463-1.131,0.703c-0.312,0.239-0.546,0.418-0.702,0.538h-0.377v-4.861c0.546-0.299,1.399-0.606,2.56-0.92
		s2.279-0.471,3.353-0.471c2.296,0,4.036,0.588,5.217,1.765c1.184,1.176,1.774,2.832,1.774,4.966c0,1.316-0.269,2.605-0.806,3.866
		c-0.537,1.262-1.43,2.615-2.678,4.061c-0.779,0.888-1.538,1.678-2.273,2.371c-0.737,0.693-1.27,1.184-1.599,1.473h8.2V49.251z"/>
	<path d="M67.907,44.061h-2.612v5.25h-4.691v-5.25h-8.512v-4.158l8.356-12.923h4.847v13.073h2.612V44.061z M60.604,40.052v-7.583
		l-4.899,7.583H60.604z"/>
</g>
<g>
</g>
<g>
</g>
<g>
</g>
<g>
</g>
<g>
</g>
<g>
</g>
</svg>
