<?xml version="1.0" encoding="utf-8"?>
<!-- Generator: Adobe Illustrator 27.5.0, SVG Export Plug-In . SVG Version: 6.00 Build 0)  -->
<svg version="1.1" xmlns="http://www.w3.org/2000/svg" xmlns:xlink="http://www.w3.org/1999/xlink" x="0px" y="0px"
	 viewBox="0 0 500 500" style="enable-background:new 0 0 500 500;" xml:space="preserve">
<g id="Floor">
	<ellipse id="Floor_2_" style="fill:#F0F0F0;" cx="248.169" cy="344.629" rx="235.608" ry="136.029"/>
</g>
<g id="Shadows">
	<ellipse id="Shadow_5_" style="fill:#E0E0E0;" cx="394.631" cy="380.985" rx="39.957" ry="23.069"/>
	<path id="Shadow_12_" style="fill:#E0E0E0;" d="M118.663,411.164l-81.516-47.063c-2.543-1.469-2.543-3.849,0-5.318l133.359-76.994
		c2.544-1.468,6.667-1.468,9.211,0l81.515,47.063c2.544,1.469,2.544,3.849,0,5.318l-133.358,76.994
		C125.33,412.633,121.206,412.633,118.663,411.164z"/>
</g>
<g id="Plants">
	<g id="Plants_13_">
		<g id="XMLID_311_">
			<g id="XMLID_361_">
				<path id="XMLID_362_" style="fill:#27DEBF;" d="M115.877,350.777c0,0-0.582-19.389-8.893-35.093
					c-8.311-15.703-20.663-26.102-32.832-28.092c-12.168-1.99-23.001,8.455-10.54,17.286c12.461,8.832,35.088,18.672,43.389,48.51
					L115.877,350.777z"/>
			</g>
			<g id="XMLID_337_" style="opacity:0.15;">
				<path id="XMLID_348_" d="M115.877,350.777c0,0-0.582-19.389-8.893-35.093c-8.311-15.703-20.663-26.102-32.832-28.092
					c-12.168-1.99-23.001,8.455-10.54,17.286c12.461,8.832,35.088,18.672,43.389,48.51L115.877,350.777z"/>
			</g>
			<g id="XMLID_312_">
				<path id="XMLID_315_" style="fill:#FFFFFF;" d="M112.702,345.49c0.045-0.004,0.089-0.013,0.133-0.027
					c0.347-0.107,0.54-0.476,0.431-0.822c-10.271-32.912-33.771-48.257-44.763-51.772c-0.344-0.113-0.714,0.081-0.825,0.425
					c-0.11,0.346,0.079,0.715,0.425,0.825c10.767,3.443,33.799,18.517,43.91,50.913C112.107,345.335,112.399,345.519,112.702,345.49
					z"/>
			</g>
		</g>
		<g id="XMLID_265_">
			<g id="XMLID_294_">
				<g id="XMLID_295_">
					<path id="XMLID_303_" style="fill:#27DEBF;" d="M52.697,334.518c0.824,2.454,3.281,3.923,5.585,5.113
						c2.291,1.179,4.802,2.468,5.886,4.818c2.183,4.745-2.69,10.671-0.305,15.317c1.002,1.948,3.093,3.121,5.204,3.708
						c1.752,0.501,3.568,0.669,5.363,0.992c0.871,0.064,1.739,0.081,2.59,0.042c2.515-0.127,5.218,0.01,7.372,1.493
						c3.388,2.346,4.062,6.966,5.907,10.653c2.213,4.415,6.562,7.578,11.339,8.691c4.007,0.917,10.173,0.58,11.389-1.117
						c0.925-1.289-1.065-5.625-0.967-7.209c0.251-4.062,0.116-8.148-0.399-12.185c-0.251-1.966-0.458-3.567-0.258-5.544
						c0.209-2.071,0.405-4.144,0.586-6.218c0.196-2.245,0.887-3.957,0.292-6.29c-0.567-2.226-1.76-4.276-2.952-6.218
						c-1.185-1.929-2.386-3.847-3.605-5.754c-1.438-2.25-2.919-4.508-4.866-6.335c-3.379-3.171-8.111-4.85-12.733-4.517
						c-3.83,0.276-7.72,2.05-11.591,1.506c-3.765-0.529-7.375-1.889-11.262-1.984c-4.065-0.099-8.345,1.226-10.974,4.476
						C52.819,329.781,51.951,332.291,52.697,334.518z"/>
				</g>
			</g>
			<g id="XMLID_288_">
				<path id="XMLID_289_" style="fill:#FFFFFF;" d="M110.638,373.856c0.016-0.001,0.032-0.004,0.047-0.006
					c0.316-0.053,0.531-0.354,0.477-0.671c-6.083-36.136-42.746-44.721-51.495-44.91c-0.317-0.004-0.587,0.248-0.595,0.57
					c-0.007,0.322,0.248,0.588,0.57,0.595c8.558,0.185,44.421,8.584,50.373,43.939C110.065,373.674,110.339,373.882,110.638,373.856
					z"/>
			</g>
			<g id="XMLID_279_">
				<path id="XMLID_280_" style="fill:#FFFFFF;" d="M71.049,352.114c0.115-0.01,0.227-0.054,0.322-0.134
					c0.102-0.085,10.452-8.534,25.946-4.745c0.313,0.072,0.629-0.115,0.705-0.427c0.077-0.313-0.116-0.629-0.427-0.705
					c-16.092-3.932-26.864,4.894-26.971,4.983c-0.247,0.207-0.279,0.574-0.073,0.821C70.677,352.059,70.865,352.13,71.049,352.114z"
					/>
			</g>
		</g>
	</g>
</g>
<g id="Device_1_">
	<g id="Device">
		<path id="XMLID_15219_" style="fill:#37474F;" d="M253.392,33.392l-127.386,73.536c-2.55,1.482-4.627,5.076-4.627,8.028v287.277
			c0,2.951,2.077,4.153,4.627,2.672l127.386-73.536c2.55-1.482,4.627-5.076,4.627-8.027V36.064
			C258.019,33.113,255.942,31.911,253.392,33.392z M251.351,296.871c0,2.526-1.773,4.136-3.971,5.399l-115.824,66.869
			c-2.186,1.263-3.971,0.243-3.971-2.295V141.808c0-2.538,1.785-5.611,3.971-6.886L247.38,68.065
			c2.198-1.275,3.971-0.243,3.971,2.283V296.871z"/>
		<path id="XMLID_15214_" style="fill:#263238;" d="M125.429,405.196c-2.569,1.181-6.308,1.078-8.694-0.287l-5.299-3.062
			c-2.569-1.479-4.645-5.058-4.645-8.028V106.561c0-1.124,0.298-2.317,0.803-3.464c0.16-0.379,0.344-0.745,0.55-1.112
			c0.011,0,0.011-0.011,0.011-0.011l14.577,8.418h0.012c-0.31,0.551-0.585,1.124-0.803,1.698c-0.356,0.963-0.562,1.95-0.562,2.867
			v287.281C121.381,404.956,123.147,406.194,125.429,405.196z"/>
		<path id="XMLID_15211_" style="fill:#27DEBF;" d="M190.8,342.892c4.039-2.332,7.313-0.441,7.313,4.222
			c0,4.664-3.274,10.335-7.313,12.667c-4.039,2.332-7.313,0.442-7.313-4.222C183.487,350.895,186.761,345.224,190.8,342.892z"/>
		<g id="XMLID_15208_">
			<path id="XMLID_15210_" d="M189.699,76.356c1.715-0.99,3.105-0.187,3.105,1.793s-1.39,4.389-3.105,5.379
				c-1.715,0.99-3.106,0.187-3.106-1.793C186.593,79.754,187.984,77.346,189.699,76.356z"/>
			<path id="XMLID_15209_" d="M177.71,95.245l23.977-13.843c1.43-0.826,2.59-0.239,2.59,1.31c0,1.55-1.16,3.475-2.59,4.301
				l-23.978,13.843c-1.43,0.826-2.59,0.239-2.59-1.31C175.12,97.997,176.28,96.071,177.71,95.245z"/>
		</g>
		<path id="XMLID_15207_" style="fill:#27DEBF;" d="M251.351,296.871c0,2.526-1.773,4.136-3.971,5.399l-115.824,66.869
			c-2.186,1.263-3.971,0.243-3.971-2.295V141.808c0-2.538,1.785-5.611,3.971-6.886L247.38,68.065
			c2.198-1.275,3.971-0.243,3.971,2.283V296.871z"/>
		<path id="XMLID_15206_" style="fill:#455A64;" d="M257.974,35.329c-0.333-2.409-2.26-3.28-4.576-1.938l-127.395,73.538
			c-1.273,0.734-2.432,2.007-3.269,3.464l-14.577-8.418c0.849-1.457,1.995-2.707,3.28-3.441l127.372-73.549
			c2.546-1.479,6.698-1.479,9.267,0l5.322,3.051C255.737,29.399,257.675,32.53,257.974,35.329z"/>
	</g>
</g>
<g id="Screen">
	<g id="App">
		<g>
			<path style="fill:#E0E0E0;" d="M267.484,77.756c-0.718-0.417-1.713-0.358-2.814,0.281l-115.824,66.856
				c-2.186,1.275-3.971,4.348-3.971,6.886v225.035c0,1.209,0.405,2.073,1.065,2.511c0.726,0.481,3.668,2.081,4.347,2.512
				c0.724,0.46,1.746,0.416,2.875-0.236l115.824-66.869c2.198-1.263,3.971-2.873,3.971-5.399V82.812c0-1.262-0.443-2.152-1.16-2.566
				C271.077,79.83,268.2,78.172,267.484,77.756z"/>
			<g id="XMLID_264_">
				<path style="fill:#FAFAFA;" d="M151.39,381.644c-1.064,0-1.7-0.874-1.7-2.337V154.271c0-2.361,1.67-5.257,3.723-6.454
					l115.822-66.855c0.542-0.314,1.07-0.48,1.529-0.48c1.06,0,1.692,0.871,1.692,2.33v226.523c0,1.956-1.147,3.487-3.721,4.965
					l-115.825,66.869C152.374,381.479,151.848,381.644,151.39,381.644z"/>
				<path style="fill:#E0E0E0;" d="M270.764,80.982c1.076,0,1.192,1.28,1.192,1.83v226.522c0,1.755-1.07,3.153-3.471,4.533
					l-115.824,66.869c-0.461,0.266-0.901,0.407-1.271,0.407c-1.083,0-1.2-1.284-1.2-1.837V154.271c0-2.166,1.592-4.924,3.471-6.02
					l115.826-66.858C269.951,81.124,270.393,80.982,270.764,80.982 M270.764,79.982c-0.535,0-1.139,0.176-1.779,0.547
					l-115.824,66.856c-2.186,1.275-3.971,4.348-3.971,6.886v225.035c0,1.8,0.898,2.837,2.2,2.837c0.534,0,1.136-0.174,1.771-0.541
					l115.824-66.869c2.198-1.263,3.971-2.873,3.971-5.399V82.812C272.956,81.022,272.065,79.982,270.764,79.982L270.764,79.982z"/>
			</g>
		</g>
		<g>
			<path style="fill:#27DEBF;" d="M213.993,151.92c16.702-9.643,30.242-1.826,30.242,17.46c0,19.286-13.54,42.737-30.242,52.38
				c-16.702,9.643-30.242,1.826-30.242-17.46C183.751,185.014,197.291,161.562,213.993,151.92z"/>
			<g>
				<path style="fill:#FAFAFA;" d="M216.494,164.407l4.268,9.066l9.543-3.661c1.315-0.504,1.84,1.347,0.888,3.133l-6.905,12.961
					l1.63,11.731c0.225,1.616-1.15,3.741-2.326,3.596l-8.535-1.055l-8.535,10.911c-1.176,1.503-2.55,0.965-2.326-0.91l1.63-13.613
					l-6.905-4.988c-0.951-0.687-0.426-3.145,0.888-4.158l9.543-7.358l4.268-13.993C214.207,164.139,215.906,163.158,216.494,164.407
					z"/>
			</g>
		</g>
		<g>
			<path style="fill:#27DEBF;" d="M172.523,273.145c0,4.133,3.093,5.698,6.908,3.495c14.009-8.088,50.794-29.326,64.804-37.415
				c3.815-2.203,6.908-7.339,6.908-11.472c0-4.133-3.093-5.697-6.908-3.494l-64.805,37.415
				C175.615,263.876,172.523,269.012,172.523,273.145z"/>
			<path style="opacity:0.6;fill:#FFFFFF;" d="M172.523,273.145c0,4.133,3.093,5.698,6.908,3.495
				c14.009-8.088,50.794-29.326,64.804-37.415c3.815-2.203,6.908-7.339,6.908-11.472c0-4.133-3.093-5.697-6.908-3.494
				l-64.805,37.415C175.615,263.876,172.523,269.012,172.523,273.145z"/>
			<path style="fill:#455A64;" d="M179.146,266.826l65.374-37.744c1.272-0.734,2.303-0.213,2.302,1.165
				c0,1.378-1.031,3.09-2.303,3.824l-65.372,37.745c-1.272,0.734-2.303,0.213-2.303-1.165
				C176.844,269.272,177.874,267.56,179.146,266.826z"/>
		</g>
		<g>
			<path style="fill:#27DEBF;" d="M172.523,298.084c0,4.133,3.093,5.698,6.908,3.495c14.009-8.088,50.794-29.326,64.804-37.415
				c3.815-2.203,6.908-7.339,6.908-11.472c0-4.133-3.093-5.697-6.908-3.495l-64.805,37.415
				C175.615,288.815,172.523,293.951,172.523,298.084z"/>
			<path style="opacity:0.6;fill:#FFFFFF;" d="M172.523,298.084c0,4.133,3.093,5.698,6.908,3.495
				c14.009-8.088,50.794-29.326,64.804-37.415c3.815-2.203,6.908-7.339,6.908-11.472c0-4.133-3.093-5.697-6.908-3.495
				l-64.805,37.415C175.615,288.815,172.523,293.951,172.523,298.084z"/>
			<g>
				<path style="fill:#455A64;" d="M183.324,289.357c1.193-0.689,2.16-0.13,2.16,1.247c0,1.378-0.967,3.053-2.16,3.742
					c-1.193,0.689-2.16,0.13-2.16-1.247C181.164,291.721,182.131,290.046,183.324,289.357z"/>
				<path style="fill:#455A64;" d="M190.139,285.422c1.193-0.689,2.16-0.131,2.16,1.247c0,1.378-0.967,3.053-2.16,3.742
					c-1.193,0.689-2.16,0.131-2.16-1.247C187.979,287.786,188.946,286.111,190.139,285.422z"/>
				<path style="fill:#455A64;" d="M196.954,281.487c1.193-0.689,2.16-0.13,2.16,1.247s-0.967,3.053-2.16,3.742
					c-1.193,0.689-2.16,0.13-2.16-1.247C194.795,283.851,195.762,282.176,196.954,281.487z"/>
				<path style="fill:#455A64;" d="M203.77,277.552c1.193-0.689,2.16-0.13,2.16,1.247s-0.967,3.053-2.16,3.742
					c-1.193,0.689-2.16,0.13-2.16-1.247S202.577,278.241,203.77,277.552z"/>
				<path style="fill:#455A64;" d="M210.585,273.618c1.193-0.689,2.16-0.131,2.16,1.247c0,1.378-0.967,3.053-2.16,3.742
					c-1.193,0.689-2.16,0.13-2.16-1.247C208.425,275.982,209.392,274.306,210.585,273.618z"/>
				<path style="fill:#455A64;" d="M217.4,269.683c1.193-0.689,2.16-0.131,2.16,1.247c0,1.378-0.967,3.053-2.16,3.742
					c-1.193,0.689-2.16,0.131-2.16-1.247C215.241,272.047,216.208,270.371,217.4,269.683z"/>
				<path style="fill:#455A64;" d="M224.216,265.748c1.193-0.689,2.16-0.13,2.16,1.247s-0.967,3.053-2.16,3.742
					c-1.193,0.689-2.16,0.13-2.16-1.247C222.056,268.112,223.023,266.437,224.216,265.748z"/>
				<path style="fill:#455A64;" d="M231.031,261.813c1.193-0.689,2.16-0.13,2.16,1.247s-0.967,3.053-2.16,3.742
					c-1.193,0.689-2.16,0.13-2.16-1.247S229.838,262.502,231.031,261.813z"/>
				<path style="fill:#455A64;" d="M237.846,257.878c1.193-0.689,2.16-0.131,2.16,1.247c0,1.377-0.967,3.053-2.16,3.742
					c-1.193,0.689-2.16,0.131-2.16-1.247C235.687,260.242,236.654,258.567,237.846,257.878z"/>
				<path style="fill:#455A64;" d="M244.662,253.943c1.193-0.689,2.16-0.131,2.16,1.247c0,1.378-0.967,3.053-2.16,3.742
					c-1.193,0.689-2.16,0.131-2.16-1.247C242.502,256.307,243.469,254.632,244.662,253.943z"/>
			</g>
		</g>
		<g>
			<path style="fill:#27DEBF;" d="M201.318,306.402l29.672-17.131c2.544-1.468,4.605-0.278,4.605,2.659l0,4.33
				c0,2.937-2.062,6.508-4.605,7.977l-29.672,17.131c-2.543,1.469-4.605,0.278-4.605-2.659v-4.33
				C196.712,311.442,198.774,307.871,201.318,306.402z"/>
			<g>
				<path style="fill:#FAFAFA;" d="M201.033,313.908v0.285c0,1.469,1.031,2.064,2.303,1.33l25.636-14.795
					c1.272-0.734,2.303-2.52,2.303-3.988v-0.292c0-1.469-1.031-2.064-2.303-1.329l-25.637,14.801
					C202.064,310.653,201.033,312.439,201.033,313.908z"/>
			</g>
		</g>
	</g>
</g>
<g id="Terms">
	<g id="Message">
		<g id="Code">
			<path id="XMLID_1621_" style="opacity:0.7;fill:#37474F;" d="M194.718,216.39l120.674-69.66c1.272-0.734,2.303-0.139,2.303,1.329
				l0,95.992c0,1.469-1.031,3.254-2.303,3.988l-120.674,69.665c-1.272,0.734-2.303,0.139-2.303-1.329v-95.996
				C192.415,218.91,193.446,217.124,194.718,216.39z"/>
			<path id="XMLID_1423_" style="opacity:0.7;fill:#263238;" d="M193.092,218.111l-5.87-3.401c-0.419,0.723-0.678,1.538-0.678,2.274
				v95.995c0,0.723,0.255,1.234,0.66,1.478c0.425,0.255,5.451,3.128,5.844,3.384c-0.393-0.255-0.627-0.766-0.627-1.468v-95.995
				C192.42,219.644,192.677,218.832,193.092,218.111z"/>
			<path id="XMLID_1205_" style="opacity:0.5;fill:#455A64;" d="M316.927,146.517c-0.819-0.5-5.387-3.118-5.759-3.341
				c-0.415-0.245-1-0.223-1.648,0.149l-120.668,69.67c-0.637,0.366-1.212,0.995-1.63,1.715l5.87,3.401
				c0.416-0.723,0.991-1.354,1.625-1.722l120.678-69.659C315.98,146.389,316.523,146.336,316.927,146.517z"/>
		</g>
		<g>
			<path style="fill:#FAFAFA;" d="M210.981,217.332c0.07-0.042,0.13-0.036,0.182,0.012c0.051,0.049,0.076,0.128,0.076,0.236v1.562
				c0,0.108-0.025,0.216-0.076,0.323c-0.052,0.109-0.112,0.183-0.182,0.224l-1.685,0.972v7.56c0,0.108-0.026,0.217-0.077,0.323
				c-0.051,0.109-0.112,0.184-0.183,0.224l-1.254,0.724c-0.07,0.04-0.13,0.036-0.182-0.014c-0.051-0.048-0.076-0.127-0.076-0.235
				v-7.561l-1.685,0.973c-0.071,0.04-0.131,0.036-0.182-0.014c-0.052-0.048-0.077-0.127-0.077-0.235v-1.562
				c0-0.108,0.025-0.216,0.077-0.325c0.051-0.107,0.111-0.182,0.182-0.222L210.981,217.332z"/>
			<path style="fill:#FAFAFA;" d="M217.375,221.599c0.07-0.042,0.131-0.037,0.182,0.011c0.051,0.05,0.077,0.128,0.077,0.236v1.562
				c0,0.108-0.026,0.217-0.077,0.324c-0.051,0.108-0.112,0.183-0.182,0.224l-4.538,2.62c-0.07,0.039-0.13,0.035-0.182-0.015
				c-0.051-0.048-0.076-0.127-0.076-0.235v-9.52c0-0.108,0.025-0.216,0.076-0.325c0.052-0.107,0.112-0.182,0.182-0.222l4.461-2.575
				c0.071-0.04,0.131-0.036,0.182,0.012c0.051,0.049,0.077,0.128,0.077,0.236v1.562c0,0.108-0.026,0.217-0.077,0.324
				c-0.051,0.108-0.111,0.183-0.182,0.223l-2.948,1.701v1.591l2.737-1.58c0.071-0.04,0.131-0.036,0.182,0.014
				c0.052,0.05,0.077,0.127,0.077,0.235v1.564c0,0.108-0.025,0.214-0.077,0.323c-0.051,0.109-0.111,0.183-0.182,0.223l-2.737,1.581
				v1.649L217.375,221.599z"/>
			<path style="fill:#FAFAFA;" d="M222.064,210.932c0.421-0.243,0.798-0.392,1.13-0.447c0.331-0.053,0.614-0.01,0.847,0.13
				c0.233,0.141,0.41,0.389,0.536,0.745c0.124,0.355,0.186,0.819,0.186,1.388c0,0.736-0.099,1.405-0.297,2.007
				c-0.197,0.6-0.479,1.133-0.841,1.598l1.186,2.823c0.02,0.048,0.029,0.096,0.029,0.145c0,0.087-0.021,0.176-0.062,0.264
				c-0.042,0.087-0.091,0.148-0.148,0.181l-1.301,0.752c-0.128,0.074-0.219,0.081-0.273,0.025c-0.054-0.057-0.098-0.12-0.129-0.191
				l-1.063-2.54l-0.881,0.509v3.153c0,0.108-0.026,0.217-0.077,0.324c-0.051,0.108-0.112,0.183-0.182,0.224l-1.255,0.723
				c-0.07,0.042-0.13,0.036-0.182-0.012c-0.051-0.049-0.076-0.128-0.076-0.236v-9.52c0-0.108,0.025-0.216,0.076-0.325
				c0.052-0.108,0.112-0.182,0.182-0.222L222.064,210.932z M220.983,216.022l1.081-0.624c0.268-0.155,0.49-0.362,0.666-0.62
				c0.176-0.258,0.263-0.594,0.263-1.007c0-0.412-0.087-0.648-0.263-0.703c-0.175-0.055-0.398-0.006-0.666,0.149l-1.081,0.624
				V216.022z"/>
			<path style="fill:#FAFAFA;" d="M229.144,214.56c-0.055-0.052-0.099-0.109-0.13-0.168l-0.899-1.913v4.878
				c0,0.108-0.026,0.217-0.078,0.324c-0.05,0.108-0.111,0.183-0.182,0.224l-1.254,0.723c-0.07,0.042-0.13,0.036-0.182-0.012
				c-0.051-0.049-0.076-0.128-0.076-0.236v-9.52c0-0.108,0.025-0.216,0.076-0.325c0.052-0.107,0.112-0.182,0.182-0.222l1.111-0.641
				c0.128-0.074,0.223-0.075,0.287-0.004c0.064,0.071,0.105,0.126,0.125,0.164l1.551,3.187l1.551-4.977
				c0.019-0.06,0.061-0.163,0.125-0.308c0.063-0.144,0.159-0.254,0.287-0.328l1.11-0.641c0.07-0.04,0.131-0.036,0.182,0.013
				c0.051,0.049,0.077,0.128,0.077,0.236v9.52c0,0.108-0.026,0.216-0.077,0.324c-0.051,0.108-0.112,0.183-0.182,0.223l-1.254,0.724
				c-0.071,0.04-0.131,0.036-0.182-0.014c-0.052-0.048-0.077-0.127-0.077-0.235v-4.878l-0.901,2.952
				c-0.031,0.096-0.075,0.202-0.129,0.317c-0.054,0.115-0.129,0.199-0.224,0.254l-0.613,0.354
				C229.271,214.611,229.198,214.612,229.144,214.56z"/>
			<path style="fill:#FAFAFA;" d="M237.314,201.981c0.408-0.236,0.783-0.362,1.124-0.377c0.342-0.016,0.637,0.048,0.885,0.189
				c0.249,0.142,0.445,0.343,0.585,0.605c0.14,0.264,0.214,0.55,0.22,0.861c0,0.088-0.021,0.177-0.062,0.264
				c-0.042,0.088-0.087,0.146-0.138,0.176l-1.255,0.724c-0.089,0.052-0.161,0.073-0.216,0.065c-0.053-0.007-0.109-0.034-0.167-0.08
				c-0.019-0.018-0.049-0.049-0.09-0.095c-0.042-0.045-0.101-0.081-0.178-0.111c-0.076-0.03-0.171-0.039-0.287-0.027
				s-0.255,0.066-0.421,0.162c-0.122,0.07-0.239,0.15-0.35,0.239c-0.112,0.088-0.211,0.185-0.297,0.289
				c-0.085,0.103-0.156,0.221-0.211,0.35c-0.054,0.13-0.081,0.268-0.081,0.415c0,0.147,0.03,0.253,0.091,0.315
				c0.06,0.064,0.163,0.096,0.305,0.097c0.144,0,0.334-0.029,0.57-0.086c0.236-0.057,0.53-0.133,0.881-0.228
				c0.351-0.094,0.657-0.134,0.919-0.118c0.262,0.016,0.48,0.099,0.655,0.248c0.175,0.149,0.306,0.368,0.393,0.657
				c0.086,0.29,0.129,0.665,0.129,1.127c0,0.501-0.073,0.99-0.22,1.468c-0.146,0.477-0.353,0.933-0.617,1.366
				c-0.265,0.432-0.577,0.827-0.938,1.182c-0.361,0.356-0.755,0.657-1.182,0.904c-0.435,0.251-0.83,0.391-1.187,0.42
				c-0.357,0.03-0.665-0.025-0.924-0.166c-0.258-0.141-0.46-0.351-0.607-0.63c-0.148-0.278-0.224-0.603-0.231-0.972
				c0-0.088,0.021-0.177,0.062-0.264c0.042-0.089,0.087-0.146,0.139-0.176l1.254-0.724c0.089-0.051,0.159-0.075,0.211-0.071
				c0.051,0.006,0.102,0.027,0.153,0.066c0.026,0.024,0.063,0.067,0.115,0.126c0.051,0.059,0.119,0.11,0.206,0.153
				c0.086,0.044,0.194,0.062,0.326,0.055c0.13-0.006,0.291-0.064,0.483-0.175c0.338-0.195,0.62-0.416,0.846-0.66
				c0.227-0.243,0.341-0.513,0.341-0.807c0-0.147-0.043-0.246-0.126-0.296c-0.082-0.051-0.207-0.07-0.373-0.058
				c-0.165,0.012-0.378,0.054-0.637,0.125c-0.259,0.071-0.563,0.148-0.914,0.234c-0.658,0.163-1.137,0.079-1.441-0.252
				c-0.302-0.331-0.455-0.919-0.455-1.764c0-0.423,0.062-0.862,0.187-1.317c0.125-0.455,0.304-0.897,0.541-1.329
				c0.236-0.431,0.521-0.829,0.856-1.194C236.523,202.523,236.898,202.221,237.314,201.981z"/>
			<path style="fill:#FAFAFA;" d="M244.042,202.09c0.019-0.561,0.097-1.125,0.235-1.69c0.136-0.565,0.331-1.101,0.584-1.604
				c0.251-0.504,0.559-0.967,0.919-1.386c0.359-0.419,0.776-0.765,1.248-1.038c0.465-0.269,0.881-0.402,1.244-0.402
				c0.363,0.001,0.671,0.109,0.924,0.321c0.251,0.213,0.446,0.523,0.584,0.93c0.137,0.407,0.215,0.88,0.235,1.419
				c0.012,0.416,0.019,0.854,0.019,1.316c0,0.462-0.006,0.898-0.019,1.308c-0.02,0.562-0.098,1.124-0.235,1.69
				c-0.138,0.566-0.332,1.103-0.584,1.611c-0.253,0.51-0.561,0.972-0.924,1.388c-0.363,0.417-0.779,0.759-1.244,1.028
				c-0.473,0.273-0.889,0.41-1.248,0.411c-0.36,0.002-0.668-0.106-0.919-0.324c-0.252-0.218-0.448-0.53-0.584-0.937
				c-0.138-0.408-0.216-0.88-0.235-1.419c-0.013-0.396-0.02-0.824-0.02-1.286C244.022,202.966,244.029,202.52,244.042,202.09z
				 M248.244,202.213c0.006-0.181,0.012-0.381,0.019-0.601c0.006-0.22,0.009-0.443,0.009-0.668c0-0.226-0.003-0.442-0.009-0.651
				c-0.006-0.207-0.013-0.393-0.019-0.556c-0.012-0.238-0.047-0.445-0.101-0.62c-0.054-0.174-0.131-0.31-0.23-0.406
				c-0.099-0.094-0.222-0.144-0.369-0.148c-0.146-0.004-0.32,0.051-0.517,0.166c-0.198,0.114-0.37,0.258-0.516,0.431
				c-0.148,0.173-0.27,0.365-0.369,0.573c-0.1,0.21-0.176,0.434-0.23,0.671c-0.055,0.238-0.088,0.484-0.101,0.736
				c-0.012,0.174-0.021,0.368-0.025,0.581c-0.002,0.213-0.004,0.433-0.004,0.659c0,0.225,0.002,0.446,0.004,0.66
				c0.004,0.214,0.012,0.406,0.025,0.576c0.025,0.477,0.136,0.82,0.33,1.032c0.194,0.213,0.489,0.205,0.885-0.024
				c0.396-0.229,0.69-0.56,0.881-0.995C248.1,203.195,248.212,202.723,248.244,202.213z"/>
			<path style="fill:#FAFAFA;" d="M256.246,191.197c0.07-0.04,0.131-0.036,0.183,0.012c0.05,0.05,0.076,0.128,0.076,0.236v1.562
				c0,0.108-0.026,0.217-0.076,0.324c-0.052,0.109-0.113,0.183-0.183,0.224l-2.861,1.652v2.019l2.67-1.542
				c0.071-0.04,0.131-0.036,0.182,0.012c0.052,0.049,0.077,0.128,0.077,0.236v1.562c0,0.108-0.025,0.216-0.077,0.325
				c-0.051,0.108-0.111,0.182-0.182,0.222l-2.67,1.542v3.184c0,0.108-0.026,0.217-0.077,0.324c-0.051,0.108-0.112,0.183-0.182,0.223
				l-1.255,0.724c-0.07,0.04-0.13,0.036-0.182-0.013c-0.051-0.048-0.076-0.127-0.076-0.235v-9.52c0-0.108,0.025-0.216,0.076-0.325
				c0.052-0.107,0.112-0.182,0.182-0.222L256.246,191.197z"/>
			<path style="fill:#FAFAFA;" d="M262.841,187.242c0.409-0.236,0.784-0.362,1.125-0.377c0.342-0.016,0.637,0.048,0.885,0.189
				c0.249,0.142,0.445,0.343,0.585,0.605c0.14,0.264,0.213,0.55,0.219,0.861c0,0.088-0.021,0.177-0.061,0.264
				c-0.042,0.088-0.087,0.146-0.139,0.175l-1.254,0.724c-0.09,0.052-0.161,0.073-0.216,0.065c-0.054-0.007-0.11-0.034-0.167-0.08
				c-0.019-0.018-0.05-0.049-0.09-0.095c-0.042-0.045-0.101-0.081-0.178-0.111c-0.077-0.03-0.171-0.039-0.287-0.027
				c-0.115,0.013-0.256,0.067-0.422,0.162c-0.12,0.07-0.238,0.15-0.349,0.239c-0.112,0.088-0.211,0.185-0.297,0.289
				c-0.086,0.103-0.156,0.221-0.211,0.35c-0.054,0.13-0.081,0.268-0.081,0.415c0,0.147,0.03,0.253,0.091,0.315
				c0.06,0.064,0.162,0.096,0.305,0.097c0.144,0,0.333-0.029,0.57-0.086c0.236-0.057,0.529-0.133,0.881-0.228
				c0.351-0.095,0.656-0.134,0.918-0.118c0.262,0.016,0.481,0.099,0.656,0.248c0.174,0.149,0.306,0.368,0.393,0.657
				c0.085,0.29,0.129,0.665,0.129,1.127c0,0.501-0.073,0.99-0.22,1.468c-0.147,0.477-0.353,0.933-0.617,1.366
				c-0.265,0.432-0.577,0.827-0.939,1.182c-0.36,0.356-0.754,0.657-1.182,0.904c-0.434,0.251-0.829,0.391-1.187,0.42
				c-0.357,0.03-0.665-0.025-0.923-0.166c-0.259-0.141-0.461-0.351-0.608-0.63c-0.147-0.278-0.223-0.603-0.231-0.972
				c0-0.088,0.021-0.177,0.062-0.264c0.043-0.089,0.088-0.146,0.139-0.176l1.255-0.724c0.088-0.051,0.159-0.075,0.21-0.071
				c0.052,0.006,0.102,0.027,0.154,0.066c0.026,0.024,0.063,0.067,0.114,0.126c0.052,0.059,0.12,0.11,0.207,0.153
				c0.086,0.044,0.194,0.062,0.325,0.055c0.131-0.006,0.292-0.064,0.483-0.175c0.339-0.195,0.621-0.415,0.847-0.66
				c0.225-0.242,0.34-0.513,0.34-0.807c0-0.148-0.042-0.246-0.125-0.297c-0.083-0.051-0.207-0.07-0.373-0.058
				c-0.166,0.012-0.378,0.054-0.637,0.125c-0.259,0.071-0.564,0.149-0.914,0.234c-0.658,0.164-1.137,0.079-1.441-0.252
				c-0.303-0.331-0.455-0.919-0.455-1.764c0-0.423,0.062-0.861,0.187-1.317c0.125-0.455,0.304-0.897,0.541-1.329
				c0.235-0.431,0.521-0.829,0.856-1.194C262.052,187.784,262.426,187.482,262.841,187.242z"/>
			<path style="fill:#FAFAFA;" d="M272.078,190.015c0.07-0.04,0.131-0.036,0.183,0.012c0.05,0.05,0.076,0.128,0.076,0.236v1.562
				c0,0.108-0.026,0.217-0.076,0.324c-0.052,0.108-0.113,0.183-0.183,0.224l-4.537,2.619c-0.071,0.04-0.131,0.036-0.182-0.013
				c-0.052-0.048-0.077-0.127-0.077-0.235v-9.52c0-0.108,0.025-0.216,0.077-0.325c0.051-0.107,0.111-0.182,0.182-0.222l4.46-2.575
				c0.071-0.041,0.132-0.036,0.182,0.012c0.051,0.049,0.078,0.128,0.078,0.236v1.562c0,0.108-0.027,0.217-0.078,0.324
				c-0.05,0.108-0.111,0.183-0.182,0.223l-2.948,1.702v1.591l2.738-1.58c0.07-0.04,0.13-0.036,0.181,0.014
				c0.052,0.049,0.077,0.127,0.077,0.235v1.563c0,0.108-0.025,0.215-0.077,0.323c-0.051,0.109-0.111,0.183-0.181,0.223l-2.738,1.58
				v1.65L272.078,190.015z"/>
			<path style="fill:#FAFAFA;" d="M276.769,179.348c0.421-0.243,0.798-0.392,1.13-0.447c0.331-0.053,0.614-0.01,0.848,0.13
				c0.233,0.141,0.41,0.389,0.536,0.745c0.124,0.355,0.186,0.819,0.186,1.388c0,0.736-0.099,1.405-0.297,2.007
				c-0.197,0.6-0.478,1.133-0.841,1.598l1.186,2.822c0.02,0.048,0.029,0.097,0.029,0.145c0,0.088-0.021,0.176-0.062,0.264
				c-0.042,0.087-0.091,0.148-0.148,0.181l-1.301,0.751c-0.128,0.074-0.219,0.082-0.273,0.024c-0.054-0.057-0.098-0.12-0.129-0.19
				l-1.063-2.541l-0.881,0.508v3.154c0,0.108-0.026,0.217-0.077,0.324c-0.051,0.108-0.112,0.183-0.182,0.223l-1.255,0.724
				c-0.07,0.041-0.13,0.036-0.181-0.013c-0.052-0.048-0.077-0.127-0.077-0.235v-9.52c0-0.108,0.025-0.216,0.077-0.325
				c0.051-0.107,0.111-0.182,0.181-0.222L276.769,179.348z M275.688,184.438l1.081-0.624c0.268-0.155,0.49-0.362,0.666-0.62
				c0.175-0.258,0.263-0.594,0.263-1.007c0-0.412-0.087-0.648-0.263-0.703c-0.176-0.056-0.398-0.006-0.666,0.149l-1.081,0.624
				V184.438z"/>
			<path style="fill:#FAFAFA;" d="M282.856,186.15c-0.249,0.144-0.418,0.045-0.507-0.297l-1.953-8.083
				c-0.012-0.061-0.021-0.1-0.025-0.118c-0.002-0.018-0.004-0.037-0.004-0.057c0-0.088,0.021-0.176,0.062-0.264
				c0.042-0.087,0.09-0.148,0.148-0.181l1.206-0.697c0.128-0.074,0.218-0.085,0.272-0.033c0.055,0.053,0.088,0.114,0.101,0.185
				l1.331,5.717l1.331-7.253c0.013-0.086,0.047-0.186,0.101-0.301c0.054-0.114,0.145-0.209,0.273-0.283l1.206-0.696
				c0.057-0.033,0.107-0.03,0.149,0.01c0.042,0.04,0.062,0.104,0.062,0.193c0,0.02-0.001,0.04-0.005,0.062
				c-0.003,0.022-0.01,0.07-0.023,0.145l-1.953,10.338c-0.09,0.446-0.26,0.74-0.508,0.883L282.856,186.15z"/>
			<path style="fill:#FAFAFA;" d="M288.227,183.049c-0.071,0.041-0.131,0.036-0.182-0.013c-0.052-0.048-0.077-0.127-0.077-0.235
				v-9.52c0-0.108,0.025-0.216,0.077-0.325c0.051-0.107,0.111-0.182,0.182-0.222l1.254-0.724c0.07-0.04,0.131-0.036,0.182,0.012
				c0.051,0.049,0.077,0.128,0.077,0.236v9.52c0,0.108-0.026,0.217-0.077,0.324c-0.051,0.108-0.112,0.183-0.182,0.223
				L288.227,183.049z"/>
			<path style="fill:#FAFAFA;" d="M293.098,173.84c-0.006,0.131-0.01,0.311-0.014,0.539c-0.003,0.228-0.004,0.462-0.004,0.703
				c0,0.241,0.001,0.476,0.004,0.705c0.004,0.229,0.008,0.406,0.014,0.53c0.013,0.218,0.042,0.418,0.086,0.598
				c0.045,0.181,0.115,0.322,0.211,0.424c0.096,0.101,0.216,0.157,0.364,0.166c0.147,0.008,0.329-0.05,0.545-0.175
				c0.217-0.125,0.396-0.268,0.536-0.428c0.141-0.159,0.255-0.322,0.345-0.487c0.089-0.164,0.159-0.329,0.206-0.494
				c0.048-0.166,0.085-0.315,0.11-0.447c0.032-0.176,0.068-0.307,0.105-0.393c0.04-0.086,0.112-0.16,0.221-0.223l1.254-0.724
				c0.057-0.033,0.107-0.03,0.148,0.01c0.042,0.04,0.061,0.104,0.061,0.193c-0.006,0.505-0.086,1.023-0.239,1.554
				c-0.153,0.53-0.363,1.035-0.632,1.513c-0.268,0.479-0.583,0.919-0.942,1.318c-0.362,0.4-0.752,0.722-1.174,0.965
				c-0.459,0.265-0.869,0.396-1.23,0.393c-0.361-0.003-0.669-0.112-0.923-0.329c-0.255-0.216-0.452-0.528-0.589-0.935
				c-0.137-0.407-0.215-0.875-0.234-1.404c-0.013-0.395-0.02-0.824-0.02-1.286c0-0.461,0.006-0.907,0.02-1.338
				c0.013-0.547,0.088-1.105,0.229-1.673c0.141-0.567,0.336-1.105,0.589-1.614c0.252-0.509,0.56-0.975,0.923-1.395
				c0.365-0.421,0.776-0.764,1.235-1.03c0.422-0.243,0.812-0.373,1.174-0.389c0.359-0.017,0.674,0.059,0.942,0.229
				c0.268,0.17,0.479,0.432,0.632,0.785c0.153,0.354,0.233,0.779,0.239,1.276c0,0.088-0.02,0.177-0.061,0.264
				c-0.042,0.088-0.091,0.148-0.148,0.181l-1.254,0.724c-0.109,0.063-0.182,0.074-0.221,0.032c-0.037-0.041-0.073-0.132-0.105-0.271
				c-0.025-0.104-0.062-0.209-0.11-0.32c-0.047-0.109-0.116-0.195-0.206-0.257c-0.089-0.061-0.204-0.091-0.345-0.088
				c-0.14,0.002-0.319,0.066-0.536,0.191c-0.216,0.125-0.398,0.277-0.545,0.456c-0.148,0.178-0.268,0.372-0.364,0.586
				c-0.096,0.212-0.166,0.434-0.211,0.667C293.14,173.374,293.111,173.608,293.098,173.84z"/>
			<path style="fill:#FAFAFA;" d="M303.551,171.844c0.071-0.041,0.131-0.036,0.183,0.012c0.05,0.05,0.076,0.128,0.076,0.236v1.562
				c0,0.108-0.026,0.217-0.076,0.324c-0.052,0.108-0.112,0.183-0.183,0.224l-4.537,2.619c-0.071,0.041-0.131,0.036-0.182-0.014
				c-0.052-0.048-0.077-0.127-0.077-0.235v-9.52c0-0.108,0.025-0.216,0.077-0.325c0.051-0.107,0.111-0.182,0.182-0.222l4.46-2.575
				c0.071-0.04,0.132-0.036,0.182,0.012c0.052,0.049,0.078,0.128,0.078,0.236v1.562c0,0.108-0.026,0.217-0.078,0.324
				c-0.05,0.108-0.111,0.183-0.182,0.223l-2.948,1.702v1.591l2.738-1.58c0.07-0.04,0.13-0.036,0.182,0.014
				c0.051,0.049,0.076,0.127,0.076,0.235v1.563c0,0.108-0.025,0.215-0.076,0.324c-0.052,0.109-0.112,0.183-0.182,0.223l-2.738,1.58
				v1.65L303.551,171.844z"/>
		</g>
		<g>
			<g>
				<path style="fill:#FAFAFA;" d="M257.527,215.392l11.91-6.876c0.661-0.382,1.198-0.072,1.198,0.691l0,0.3
					c0,0.764-0.536,1.692-1.197,2.074l-11.911,6.875c-0.661,0.382-1.197,0.072-1.197-0.691v-0.3
					C256.329,216.703,256.865,215.774,257.527,215.392z"/>
				<path style="fill:#FAFAFA;" d="M205.684,245.324l46.649-26.919c0.661-0.382,1.198-0.072,1.198,0.691l0,0.3
					c0,0.764-0.536,1.692-1.197,2.074l-46.65,26.918c-0.661,0.382-1.197,0.072-1.197-0.691l0-0.3
					C204.486,246.634,205.023,245.706,205.684,245.324z"/>
				<path style="fill:#FAFAFA;" d="M274.807,205.418l27.847-16.083c0.661-0.382,1.198-0.072,1.198,0.691l0,0.3
					c0,0.764-0.536,1.692-1.197,2.074l-27.848,16.082c-0.661,0.382-1.197,0.072-1.197-0.691v-0.3
					C273.61,206.728,274.146,205.799,274.807,205.418z"/>
			</g>
			<g>
				<path style="fill:#FAFAFA;" d="M238.412,234.478l11.91-6.876c0.661-0.382,1.198-0.072,1.198,0.691l0,0.3
					c0,0.764-0.535,1.692-1.197,2.074l-11.911,6.875c-0.661,0.382-1.198,0.072-1.198-0.691v-0.3
					C237.214,235.788,237.751,234.859,238.412,234.478z"/>
				<path style="fill:#FAFAFA;" d="M256.005,224.295l46.649-26.919c0.661-0.382,1.198-0.072,1.198,0.691l0,0.3
					c0,0.764-0.536,1.692-1.197,2.074l-46.65,26.918c-0.661,0.382-1.197,0.072-1.198-0.691v-0.3
					C254.808,225.605,255.344,224.676,256.005,224.295z"/>
				<path style="fill:#FAFAFA;" d="M205.613,253.419l27.847-16.083c0.661-0.382,1.198-0.072,1.198,0.691l0,0.3
					c0,0.764-0.536,1.692-1.197,2.074l-27.848,16.082c-0.661,0.382-1.197,0.072-1.197-0.691v-0.3
					C204.415,254.729,204.951,253.8,205.613,253.419z"/>
			</g>
			<g>
				<path style="fill:#FAFAFA;" d="M205.684,237.271l20.402-11.781c0.661-0.382,1.198-0.072,1.198,0.691l0,0.3
					c0,0.764-0.536,1.692-1.197,2.074l-20.403,11.78c-0.661,0.382-1.197,0.072-1.197-0.691l0-0.3
					C204.486,238.582,205.023,237.653,205.684,237.271z"/>
				<path style="fill:#FAFAFA;" d="M284.451,191.795l18.443-10.65c0.661-0.382,1.198-0.072,1.198,0.691l0,0.3
					c0,0.764-0.536,1.692-1.197,2.074l-18.444,10.649c-0.661,0.382-1.197,0.072-1.198-0.691v-0.3
					C283.253,193.105,283.789,192.177,284.451,191.795z"/>
				<path style="fill:#FAFAFA;" d="M231.281,222.477l46.649-26.919c0.661-0.382,1.198-0.072,1.198,0.691l0,0.3
					c0,0.764-0.536,1.692-1.197,2.074l-46.65,26.918c-0.661,0.382-1.198,0.072-1.198-0.691l0-0.3
					C230.083,223.788,230.62,222.859,231.281,222.477z"/>
			</g>
			<g>
				<path style="fill:#FAFAFA;" d="M257.527,240.342l11.91-6.876c0.661-0.382,1.198-0.072,1.198,0.691l0,0.3
					c0,0.764-0.536,1.692-1.197,2.074l-11.911,6.875c-0.661,0.382-1.197,0.072-1.197-0.691v-0.3
					C256.329,241.652,256.865,240.724,257.527,240.342z"/>
				<path style="fill:#FAFAFA;" d="M205.684,270.273l46.649-26.919c0.661-0.382,1.198-0.072,1.198,0.691l0,0.3
					c0,0.764-0.536,1.692-1.197,2.074l-46.65,26.918c-0.661,0.382-1.197,0.072-1.197-0.691l0-0.3
					C204.486,271.584,205.023,270.655,205.684,270.273z"/>
				<path style="fill:#FAFAFA;" d="M274.807,230.367l27.847-16.083c0.661-0.382,1.198-0.072,1.198,0.691l0,0.3
					c0,0.764-0.536,1.692-1.197,2.074l-27.848,16.082c-0.661,0.382-1.197,0.072-1.197-0.691v-0.3
					C273.61,231.678,274.146,230.749,274.807,230.367z"/>
			</g>
			<g>
				<path style="fill:#FAFAFA;" d="M238.412,259.427l11.91-6.876c0.661-0.382,1.198-0.072,1.198,0.691l0,0.3
					c0,0.764-0.535,1.692-1.197,2.074l-11.911,6.875c-0.661,0.382-1.198,0.072-1.198-0.691v-0.3
					C237.214,260.738,237.751,259.809,238.412,259.427z"/>
				<path style="fill:#FAFAFA;" d="M256.005,249.244l46.649-26.919c0.661-0.382,1.198-0.072,1.198,0.691l0,0.3
					c0,0.764-0.536,1.692-1.197,2.074l-46.65,26.918c-0.661,0.382-1.197,0.072-1.198-0.691v-0.3
					C254.808,250.555,255.344,249.626,256.005,249.244z"/>
				<path style="fill:#FAFAFA;" d="M205.613,278.368l27.847-16.083c0.661-0.382,1.198-0.072,1.198,0.691l0,0.3
					c0,0.764-0.536,1.692-1.197,2.074l-27.848,16.082c-0.661,0.382-1.197,0.072-1.197-0.691v-0.3
					C204.415,279.679,204.951,278.75,205.613,278.368z"/>
			</g>
			<g>
				<path style="fill:#FAFAFA;" d="M205.684,262.221l20.402-11.781c0.661-0.382,1.198-0.072,1.198,0.691l0,0.3
					c0,0.764-0.536,1.692-1.197,2.074l-20.403,11.78c-0.661,0.382-1.197,0.072-1.197-0.691l0-0.3
					C204.486,263.531,205.023,262.603,205.684,262.221z"/>
				<path style="fill:#FAFAFA;" d="M284.451,216.745l18.443-10.65c0.661-0.382,1.198-0.072,1.198,0.691l0,0.3
					c0,0.764-0.536,1.692-1.197,2.074l-18.444,10.649c-0.661,0.382-1.197,0.072-1.198-0.691v-0.3
					C283.253,218.055,283.789,217.126,284.451,216.745z"/>
				<path style="fill:#FAFAFA;" d="M231.281,247.427l46.649-26.919c0.661-0.382,1.198-0.072,1.198,0.691l0,0.3
					c0,0.764-0.536,1.692-1.197,2.074l-46.65,26.918c-0.661,0.382-1.198,0.072-1.198-0.691l0-0.3
					C230.083,248.738,230.62,247.809,231.281,247.427z"/>
			</g>
		</g>
		<g>
			<g>
				<path style="fill:#27DEBF;" d="M278.832,248.17c2.983-1.722,5.4-0.326,5.4,3.118c0,3.444-2.418,7.632-5.4,9.354
					c-2.982,1.722-5.4,0.326-5.4-3.118C273.431,254.08,275.849,249.892,278.832,248.17z"/>
				<g>
					<path style="fill:#FAFAFA;" d="M278.946,258.507c-0.257,0-0.508-0.1-0.695-0.282l-2.372-2.306
						c-0.395-0.384-0.404-1.015-0.021-1.41c0.386-0.395,1.016-0.404,1.41-0.021l1.324,1.288l4.719-11.229
						c0.213-0.508,0.797-0.745,1.306-0.532c0.508,0.213,0.745,0.799,0.532,1.306l-5.285,12.576
						c-0.127,0.304-0.397,0.524-0.721,0.591C279.079,258.5,279.013,258.507,278.946,258.507z"/>
				</g>
			</g>
			<path style="opacity:0.3;fill:#FFFFFF;" d="M289.28,243.135l4.957-2.862c1.017-0.587,1.842-0.111,1.842,1.064v5.723
				c0,1.175-0.825,2.603-1.842,3.191l-4.957,2.862c-1.017,0.587-1.842,0.111-1.842-1.064v-5.723
				C287.438,245.151,288.263,243.722,289.28,243.135z"/>
		</g>
		<g>
			<path style="fill:#F28F8F;" d="M222.634,280.375c2.983-1.722,5.4-0.326,5.4,3.118c0,3.444-2.418,7.632-5.4,9.354
				c-2.982,1.722-5.4,0.326-5.4-3.118C217.234,286.284,219.652,282.096,222.634,280.375z"/>
			<path style="opacity:0.3;fill:#FFFFFF;" d="M232.983,275.689l4.957-2.862c1.017-0.587,1.842-0.111,1.842,1.064v5.723
				c0,1.175-0.825,2.603-1.842,3.191l-4.957,2.862c-1.017,0.587-1.842,0.111-1.842-1.064v-5.723
				C231.141,277.705,231.965,276.276,232.983,275.689z"/>
			<g>
				<g>
					<path style="fill:#FAFAFA;" d="M224.652,289.549c-0.249,0-0.497-0.092-0.691-0.278l-4.02-3.866
						c-0.397-0.383-0.41-1.014-0.029-1.41c0.383-0.399,1.014-0.408,1.41-0.029l4.02,3.866c0.397,0.383,0.41,1.014,0.029,1.41
						C225.175,289.446,224.913,289.549,224.652,289.549z"/>
				</g>
				<g>
					<path style="fill:#FAFAFA;" d="M220.455,292.219c-0.141,0-0.287-0.031-0.424-0.096c-0.499-0.235-0.712-0.828-0.475-1.327
						l4.356-9.223c0.235-0.497,0.826-0.711,1.327-0.475c0.499,0.235,0.711,0.828,0.475,1.327l-4.356,9.223
						C221.187,292.009,220.829,292.219,220.455,292.219z"/>
				</g>
			</g>
		</g>
	</g>
</g>
<g id="Speach_Bubble">
	<g id="Speach_Bubble_5_">
		<g id="XMLID_395_">
			<path id="XMLID_415_" style="fill:#27DEBF;" d="M387.649,121.838l-3.284-6.174l2.642-7.626v-4.668l-8.085,4.668v4.668
				l3.476,6.021c0.059,0.102,0.143,0.168,0.236,0.21l-0.002,0.003L387.649,121.838z"/>
			<path id="XMLID_408_" style="opacity:0.2;" d="M387.649,121.838l-3.284-6.174l2.642-7.626v-4.668l-8.085,4.668v4.668l3.476,6.021
				c0.059,0.102,0.143,0.168,0.236,0.21l-0.002,0.003L387.649,121.838z"/>
			<path id="XMLID_406_" style="fill:#27DEBF;" d="M406.957,66.262c0-1.546-1.085-3.425-2.424-4.199l-1.974-1.139
				c-1.338-0.773-3.509-0.773-4.848,0l-30.269,17.507c-1.339,0.773-2.424,2.652-2.424,4.199v33.304c0,1.546,1.086,3.426,2.424,4.199
				l1.974,1.14c1.339,0.773,3.509,0.773,4.848,0l9.735-5.624l3.469,6.009c0.222,0.384,0.792,0.33,0.938-0.089l3.666-10.583
				l12.462-7.219c1.339-0.773,2.424-2.652,2.424-4.198L406.957,66.262z"/>
			<path id="XMLID_404_" style="opacity:0.2;" d="M365.019,115.933c0,1.546,1.085,3.426,2.424,4.199l1.974,1.14
				c1.21,0.699,3.093,0.759,4.434,0.195c-1.141,0.431-2.009-0.212-2.009-1.595l0-33.304c0-0.773,0.271-1.629,0.71-2.389
				l-6.822-3.938c-0.439,0.76-0.71,1.616-0.71,2.389V115.933z"/>
			<path id="XMLID_403_" style="opacity:0.5;fill:#FFFFFF;" d="M406.878,65.573c-0.283-1.029-1.221-1.357-2.341-0.712
				l-30.274,17.511c-0.667,0.384-1.278,1.04-1.708,1.809l-6.819-3.935c0.441-0.769,1.04-1.425,1.707-1.81l30.263-17.511
				c1.346-0.769,3.517-0.769,4.852,0l1.979,1.142C405.679,62.723,406.64,64.193,406.878,65.573z"/>
		</g>
		<path id="Check" style="fill:#FAFAFA;" d="M399.484,74.175c-1.417-0.593-3.052,0.073-3.643,1.486l-10.517,25.022l-2.505-2.436
			c-1.095-1.067-2.859-1.043-3.934,0.058c-1.067,1.099-1.042,2.864,0.057,3.933l5.429,5.277c0.522,0.507,1.21,0.786,1.939,0.786
			c0.184,0,0.367-0.018,0.555-0.055c0.903-0.185,1.655-0.801,2.01-1.648l12.096-28.78C401.564,76.402,400.897,74.768,399.484,74.175
			z"/>
	</g>
</g>
<g id="Character">
	<g id="Character_5_">
		<path id="XMLID_2840_" style="fill:#FFA8A7;" d="M406.821,187.03c7.114,0,10.684,2.363,13.658,8.857
			c2.844,6.212,9.745,28.107,9.307,32.478c-0.438,4.372-15.682,23.324-15.682,23.324l-6.394-7.813l10.364-16.831l-9.712-20.247
			L406.821,187.03z"/>
		<g id="Character_7_">
			<g id="XMLID_1152_">
				<g>
					<g id="XMLID_388_">
						<path style="fill:#263238;" d="M402.564,373.696l-5.528,7.681c0,0,2.757,2.464,8.226,2.672
							c4.946,0.188,6.305-1.676,6.488-2.067c0.475-1.019,0.263-3.083,0.089-5.172c-0.132-1.578-0.089-4.285-1.04-4.285
							L402.564,373.696z"/>
					</g>
					<g id="XMLID_386_">
						<path style="fill:#263238;" d="M394.374,375.783c0,0-10.781,1.589-13.313,1.318c-2.609,0.245-6.548,0.269-8.559,0.847
							c-3.323,0.955-1.256,5.999,5.01,7.676c4.018,1.076,10.556,1.149,14.672,2.381c4.217,1.262,7.02,3.078,11.818,1.716
							c3.259-0.925,3.394-3.549,3.078-5.476c-0.528-3.215-0.613-6.327-2.355-6.668C402.559,377.153,394.374,375.783,394.374,375.783
							z"/>
					</g>
					<path style="fill:#FFA8A7;" d="M421.492,254.14c-0.935-8.073-5.323-14.4-9.94-21.583l-11.931,35.142l-3.042,11.013
						c0,0,0.21,25.245,0.596,31.288c0.386,6.043,4.443,55.165,4.443,55.165l0.736,9.695c6.87,1.905,8.309,0.097,8.373-1.4
						c0.064-1.498,0.826-7.483,0.826-7.483s6.514-35.915,6.776-41.118c0.514-10.195-2.541-17.902-2.541-17.902
						C417.164,294.351,423.468,271.188,421.492,254.14z"/>
					<path style="fill:#F28F8F;" d="M401.619,365.165l0.736,9.695c6.87,1.905,8.309,0.097,8.373-1.4
						c0.015-0.345,0.067-0.932,0.138-1.623c-1.108,2.485-3.377,1.763-4.675-1.778c-1.298-3.54-6.989-34.399-6.99-34.403
						C400.376,350.118,401.619,365.165,401.619,365.165z"/>
					<path style="fill:#FFA8A7;" d="M411.552,232.557l-34.956,4.031c0,0-8.622,61.707-9.286,67.531
						c-1.106,9.713,1.685,15.245,3.427,18.798c2.329,4.75,20.813,45.393,22.98,52.866c0,0-9.015,0.977-12.661,1.303
						c-4.213,1.108-2.351,2.582-1.069,3.461c1.597,1.095,4.952,1.002,8.619,1.266c3.914,0.281,7.306,0.114,10.642,0.157
						c5.75,0.073,6.012-2.603,6.012-2.603l0,0c-0.854-3.746-1.576-7.515-2.164-11.312c-1.75-11.302-5.482-34.294-7.963-41.729
						c-1.922-5.76-7.208-12.793-7.208-12.793l11.696-45.834c13.209-3.928,17.527-9.569,19.049-17.595
						C419.925,243.481,414.022,236.588,411.552,232.557z"/>
				</g>
				<g id="XMLID_2819_">
					<g id="XMLID_2824_">
						<polygon id="XMLID_2825_" style="fill:#FFA8A7;" points="390.19,180.523 391.63,195.534 405.047,194.7 403.973,178.052 						
							"/>
					</g>
				</g>
				<g id="XMLID_2808_">
					<g id="XMLID_2809_">
						<path id="XMLID_2818_" style="fill:#27DEBF;" d="M417.102,193.397c-1.363-3.975-4.143-6.3-10.281-6.367l-2.265,0.07
							c-0.431,2.213-7.038,4.008-13.568,1.742c-2.591,0.047-8.411,1.482-8.411,1.482c0.071-0.111-6.381,9.471-6.893,22.353
							c-0.173,4.369,0.339,9.221,1.251,18.27c-1.546,10.332-5.169,30.072-7.486,51.064c0,0,2.935,0.475,5.097-1.846
							c1.49-1.599,3.174-4.523,4.882-14.481c0.028,12.586,3.204,17.003,7.58,19.778c2.891,1.833,7.596,3.491,11.945,3.157
							c16.429-1.262,19.584-3.995,21.729-8.941c2.252-16.326,2.389-24.293,1.187-29.142c-1.202-4.848-3.778-8.852-7.159-15.051
							c-1.422-2.607-3.361-7.448-2.981-8.932c1.843-7.194,4.822-14.149,5.659-20.588
							C418.082,200.64,418.018,196.067,417.102,193.397z"/>
					</g>
				</g>
				<g id="XMLID_379_" style="opacity:0.6;">
					<g id="XMLID_380_">
						<path id="XMLID_381_" d="M417.102,193.397c-1.363-3.975-4.143-6.3-10.281-6.367l-2.265,0.07
							c-0.431,2.213-7.038,4.008-13.568,1.742c-2.591,0.047-8.411,1.482-8.411,1.482c0.071-0.111-6.381,9.471-6.893,22.353
							c-0.173,4.369,0.339,9.221,1.251,18.27c-1.546,10.332-5.169,30.072-7.486,51.064c0,0,2.935,0.475,5.097-1.846
							c1.49-1.599,3.174-4.523,4.882-14.481c0.028,12.586,3.204,17.003,7.58,19.778c2.891,1.833,7.596,3.491,11.945,3.157
							c16.429-1.262,19.584-3.995,21.729-8.941c2.252-16.326,2.389-24.293,1.187-29.142c-1.202-4.848-3.778-8.852-7.159-15.051
							c-1.422-2.607-3.361-7.448-2.981-8.932c1.843-7.194,4.822-14.149,5.659-20.588
							C418.082,200.64,418.018,196.067,417.102,193.397z"/>
					</g>
				</g>
				<path id="XMLID_2806_" style="fill:#FFA8A7;" d="M382.577,190.324c-7.188,0.336-10.36,7.206-10.661,13.652
					c-0.556,11.919-1.335,22.631-3.039,27.678c-1.82,5.391-13.468,16.508-16.995,17.508c-3.527,1-8.204-1.006-9.451,0.739
					c-1.247,1.744,3.804,2.404,3.979,3.307c0.175,0.903-6.362,2.867-10.084,2.218c-3.722-0.649-2.769,5.728,2.816,8.236
					c5.585,2.508,12.814,0.516,19.565-4.393c6.751-4.909,19.087-14.73,22.185-22.181c4.066-9.778,5.084-15.799,6.058-22.726
					C390.19,192.74,382.577,190.324,382.577,190.324z"/>
				<g id="XMLID_1161_">
					<g id="XMLID_2802_">
						<path id="XMLID_2805_" style="fill:#263238;" d="M373.008,151.659c-0.099-0.706-0.094-1.423,0.033-2.126
							c0.33-1.821,1.494-3.473,3.097-4.398c1.603-0.925,3.616-1.104,5.357-0.479c-0.585-2.735,0.991-5.776,3.564-6.874
							c1.945-0.831,4.224-0.587,6.17,0.243c1.114,0.475,2.206,1.197,2.689,2.307c1.348-2.26,4.107-3.591,6.716-3.239
							c2.608,0.352,4.916,2.366,5.617,4.903c2.038-0.455,4.925,0.454,5.836,2.482c1.038,2.309-0.233,5.162,0.244,7.584
							c0.308,1.562,0.98,3.034,1.271,4.62c0.324,1.766,0.429,3.564,0.499,5.355c0.289,7.411-16.912,12.229-16.572,17.309
							c-3.056-3.719-6.113-7.438-9.169-11.157c0-0.464-1.294-1.619-1.588-2.011c-0.549-0.735-1.037-1.524-1.542-2.293
							c-1.629-2.478-3.719-3.782-6.32-5.054c-1.769-0.865-3.397-2.085-4.519-3.703C373.676,154.098,373.182,152.896,373.008,151.659
							z"/>
					</g>
					<g id="XMLID_2800_">
						<path id="XMLID_2801_" style="fill:#F28F8F;" d="M380.237,164.051c0,0-2.971,4.415-2.583,4.881
							c0.388,0.467,2.276,0.964,2.276,0.964L380.237,164.051z"/>
					</g>
					<g id="XMLID_2798_">
						<path id="XMLID_2799_" style="fill:#FFA8A7;" d="M389.316,150.064c-2.888,1.467-7.879,4.177-9.163,14.633
							c-1.317,10.734,1.114,14.464,2.603,15.871c1.005,0.949,6.191,1.294,8.896,0.469c3.385-1.033,10.717-4.595,14.155-10.134
							c4.044-6.518,4.879-15.205,0.211-18.611C399.449,147.498,391.761,148.823,389.316,150.064z"/>
					</g>
					<path style="fill:#F28F8F;" d="M383.034,180.759c1.215,0.669,4.664,0.947,7.234,0.571l-0.078-1.928
						c0,0-1.437,0.666-3.423,1.115C384.792,180.965,383.055,180.762,383.034,180.759z"/>
					<g id="XMLID_2796_">
						<path id="XMLID_2797_" style="fill:#263238;" d="M388.048,149.746c-1.186,0.506-2.329,1.006-3.36,1.935
							c-0.483,0.436-0.933,0.93-1.19,1.528c-0.232,0.54-0.296,1.143-0.241,1.728c0.148,1.604,1.222,3.089,2.699,3.732
							c-0.78,1.054-1.055,2.466-0.727,3.736c0.391,1.517,1.541,2.703,2.646,3.813c0.065,0.065,0.133,0.132,0.22,0.16
							c0.164,0.052,0.333-0.048,0.476-0.143c1.814-1.213,2.934-3.308,5.499-2.466c3.365,1.104,3.203,5.258,0.562,7.847
							c-1.144,1.121-2.575,1.626-3.517,1.662c-1.104,0.042-1.852-0.654-1.852-0.654s0.091,5.418,4.803,7.563
							c0,0,5.235,1.674,10.054,0.12c1.775-2.253,4.752-5.137,7.204-7.713c8.077-8.488,8.537-20.819-3.371-24.714
							c-0.41-0.134-0.825-0.257-1.242-0.368c-3.808-1.015-7.856-1.07-11.706-0.251c-1.926,0.409-3.805,1.038-5.584,1.882
							C388.958,149.36,388.5,149.553,388.048,149.746z"/>
					</g>
					<path id="XMLID_368_" style="fill:#263238;" d="M387.666,170.001c-1.319-0.469-2.003-1.9-1.526-3.197
						c0.477-1.297,1.933-1.969,3.253-1.5L387.666,170.001z"/>
				</g>
			</g>
		</g>
	</g>
</g>
</svg>
